<svg width="498px" height="319px" viewBox="0 0 498 319" version="1.1" xmlns="http://www.w3.org/2000/svg" xmlns:xlink="http://www.w3.org/1999/xlink">
    <!-- Generator: Sketch 41.2 (35397) - http://www.bohemiancoding.com/sketch -->
    <desc>Created with Sketch.</desc>
    <defs></defs>
    <path d="M477.53,0 L20.221,0 L16.255,0 L6.63,0 L0,0 L0,318.585 L497.782,318.585 L497.782,0 L480.564,0 L477.53,0 Z M457.619,19.912 L265.311,212.219 C256.542,220.988 241.238,220.988 232.469,212.219 L40.132,19.912 L457.619,19.912 Z M19.91,27.844 L149.197,157.112 L19.91,286.4 L19.91,27.844 Z M35.796,298.67 L163.285,171.2 L218.391,226.297 C226.529,234.445 237.369,238.937 248.89,238.937 C260.411,238.937 271.251,234.445 279.389,226.297 L334.495,171.191 L461.974,298.67 L35.796,298.67 L35.796,298.67 Z M477.871,286.41 L348.583,157.113 L477.87,27.816 L477.87,286.41 L477.871,286.41 Z" id="Shape" stroke="none" fill="#999999" fill-rule="evenodd"></path>
</svg>
