<svg version="1.1" xmlns="http://www.w3.org/2000/svg" xmlns:xlink="http://www.w3.org/1999/xlink">
    <defs>
        <symbol id="flat-logo" viewBox="-3 1 44 51">
            <path d="M28.7649169,39.1350678 L37.4902405,34.0974998 L37.4902405,12.4524994 L18.7451203,1.62999916 L-7.10542736e-15,12.4524994 L4.88498131e-15,34.0974998 L18.7195039,44.9052104 L18.7000122,44.916464 L28.7649169,50.7274394 L28.7649169,39.1350678 Z M18.9000063,13 L27.8200681,18.1374998 L27.8200681,28.4124994 L18.9000063,33.5499992 L9.97994447,28.4124994 L9.97994447,18.1374998 L18.9000063,13 Z" id="Combined-Shape" fill="#DDDDDD"></path>
        </symbol>

        <symbol id="zen-home" viewBox="33 -1 103 82">
            <g id="1483058512_store" stroke="none" stroke-width="1" fill="none" fill-rule="evenodd" transform="translate(34.000000, 0.000000)">
                <g id="Layer_1" stroke-width="2" stroke="#333333">
                    <g id="Group">
                        <path d="M50.6836862,22.1056307 C51.6777801,24.3708084 56.9855735,28.6393835 62.2194655,28.6393835 C68.2364746,28.6393835 73.0257659,24.6146587 74.8506551,22.2311419 C76.5444289,24.7915697 81.656741,28.5246304 87.968164,28.5246304 C94.278395,28.5246304 100.662527,24.539352 100.662527,19.0120793 C100.662527,17.6374332 100.380033,16.6285624 99.8782184,15.2814092 L94.9399322,0.300157282 L53.3417548,0.300157282" id="Shape"></path>
                        <path d="M53.3417548,0.297766593 L50.1282333,0.297766593 L5.84099645,0.297766593 L0.91224596,15.2837999 C0.411623177,16.6309531 0.137472605,17.5609311 0.137472605,18.9367726 C0.137472605,24.4640453 6.54067639,28.5019188 12.8509074,28.5019188 C19.1623303,28.5019188 24.3104013,24.8106952 26.004175,22.2514627 C27.8290642,24.6349796 32.691065,28.7122995 38.7092661,28.7122995 C43.9419661,28.7122995 49.6919764,24.3648317 50.6836862,22.099654" id="Shape"></path>
                        <path d="M94.3121892,29.3471532 L94.3121892,72.7919472 C94.3121892,76.5118591 90.859084,79.8636049 87.1485156,79.8636049 L14.3877619,79.8636049 C10.6783855,79.8636049 7,76.5118591 7,72.7919472 L7,28" id="Shape"></path>
                        <path d="M63.4161924,79.6089336 L63.4161924,52.5750236 C63.4161924,49.3189053 66.2089523,46.6054734 69.4546567,46.6054734 L76.3406039,46.6054734 C79.5898841,46.6054734 82.2217296,49.3201007 82.2217296,52.5750236 L82.2217296,79.6089336" id="Shape"></path>
                        <path d="M48.6394765,64.9587292 C48.6394765,66.4457377 47.435598,67.6530355 45.9528009,67.6530355 L21.7739125,67.6530355 C20.2899235,67.6530355 19.0872369,66.4457377 19.0872369,64.9587292 L19.0872369,46.0997798 C19.0872369,44.611576 20.2899235,43.4054734 21.7739125,43.4054734 L45.9539929,43.4054734 C47.4367899,43.4054734 48.6406685,44.611576 48.6406685,46.0997798 L48.6406685,64.9587292 L48.6394765,64.9587292 Z" id="Shape"></path>
                    </g>
                </g>
            </g>
        </symbol>
        <symbol id="zen-spy" viewBox="44 0 100 100">
            <g id="1483063051_SEO_usability_audit_search_" stroke="none" stroke-width="1" fill="none" fill-rule="evenodd" transform="translate(44.000000, 0.000000)">
                <g id="Icons">
                    <g id="usability_audit">
                        <g id="Group">
                            <path d="M22.3518519,29.6296296 L24.3055556,29.6296296 L24.7703704,32.8851852 C24.8962963,33.8962963 25.8240741,34.6092593 26.8333333,34.7537037 L29.6481481,35.0388889 C30.0481481,35.0962963 30.5444444,35.0666667 31.062963,35.0666667 C31.8555556,35.0666667 32.6944444,34.9722222 33.2981481,34.8518519 L34.2962963,34.6388889 C35.2944444,34.4388889 36.3148148,33.9222222 36.5611111,32.9351852 L37.5,29.6296296 C37.5,29.6296296 37.6740741,28.7037037 38.8888889,28.7037037 C40.1037037,28.7037037 40.2777778,29.6296296 40.2777778,29.6296296 L41.2185185,32.9259259 C41.4648148,33.912963 42.4851852,34.6537037 43.4833333,34.8537037 L44.4814815,34.937037 C45.0851852,35.0574074 45.9240741,35.0648148 46.7166667,35.0648148 C47.2333333,35.0648148 47.7333333,35.0092593 48.1314815,34.95 L50.9462963,34.5333333 C51.9555556,34.3888889 52.8833333,33.9 53.0092593,32.8888889 L53.4722222,29.6296296 L55.537037,29.6296296 C55.55,30.5092593 55.5555556,31.4203704 55.5555556,32.4074074 C55.5555556,32.4074074 57.4074074,26.5037037 57.4074074,17.5925926 C57.4074074,12.1925926 56.4814815,4.62962963 50,4.62962963 C47.3,1.46666667 42.6925926,0.925925926 37.037037,0.925925926 C23.1481481,0.925925926 20.3703704,9.25925926 20.3703704,17.5925926 C20.3703704,26.7981481 22.2222222,32.4074074 22.2222222,32.4074074 C22.2222222,31.3759259 22.2759259,30.4796296 22.3518519,29.6296296 Z M36.6148148,28.4240741 L35.6611111,32.2407407 C35.5,32.8833333 34.7611111,33.587037 34.112963,33.7166667 L33.112963,33.9148148 C32.5907407,34.0203704 31.8240741,34.0833333 31.0611111,34.0833333 C30.5722222,34.0833333 30.1166667,34.0555556 29.7796296,34.0074074 L26.962963,33.6055556 C26.3703704,33.5203704 25.762963,32.9018519 25.6888889,32.3074074 L25.2222222,28.5740741 C25.1592593,28.0685185 25.5314815,27.5796296 26.037037,27.5074074 L28.8537037,27.1055556 C29.3388889,27.0351852 30.0222222,26.9944444 30.7296296,26.9944444 C31.3203704,26.9944444 31.8722222,27.0240741 32.2777778,27.0740741 L36.0111111,27.5407407 C36.2351852,27.5685185 36.4185185,27.6722222 36.5277778,27.8351852 C36.6388889,27.9962963 36.6703704,28.2055556 36.6148148,28.4240741 Z M52.0888889,32.3055556 C52.0148148,32.9 51.4055556,33.5185185 50.8148148,33.6037037 L47.9981481,34.0055556 C47.6592593,34.0537037 47.2037037,34.0814815 46.7166667,34.0814815 C45.9537037,34.0814815 45.187037,34.0185185 44.662963,33.912963 L43.6666667,33.7148148 C43.0148148,33.5851852 42.2777778,32.8814815 42.1185185,32.2388889 L41.162963,28.4222222 C41.1092593,28.2055556 41.1388889,27.9962963 41.2518519,27.8351852 C41.362963,27.6722222 41.5462963,27.5666667 41.7685185,27.5407407 L45.5018519,27.0740741 C45.9092593,27.0240741 46.4592593,26.9944444 47.05,26.9944444 C47.7574074,26.9944444 48.4407407,27.0333333 48.9277778,27.1055556 L51.7407407,27.5074074 C52.2462963,27.5796296 52.6222222,28.0685185 52.5574074,28.5740741 L52.0888889,32.3055556 Z M53.3296296,27.7777778 C53.087037,27.1703704 52.5574074,26.687037 51.8703704,26.5888889 L49.0555556,26.187037 C48.5074074,26.1092593 47.7703704,26.0685185 47.0481481,26.0685185 C46.4407407,26.0685185 45.8462963,26.0981481 45.3851852,26.1555556 L41.6518519,26.6222222 C40.9574074,26.7092593 40.4685185,27.1796296 40.2981481,27.7777778 L37.4814815,27.7777778 C37.3092593,27.1796296 36.8222222,26.7092593 36.1277778,26.6222222 L32.3944444,26.1555556 C31.9314815,26.0981481 31.3388889,26.0685185 30.7314815,26.0685185 C30.0092593,26.0685185 29.2740741,26.1092593 28.7240741,26.187037 L25.9092593,26.5888889 C25.2222222,26.687037 24.6925926,27.1685185 24.4481481,27.7777778 L22.5740741,27.7777778 C22.9851852,25.0833333 23.662963,22.8740741 24.0759259,19.4444444 C24.2888889,17.6833333 24.462963,17.0944444 24.9759259,17.0944444 C26.0037037,17.0944444 28.3981481,19.4444444 35.187037,19.4444444 C43.2611111,19.4444444 47.55,14.5648148 50.1351852,14.5648148 C50.8111111,14.5648148 51.3722222,14.9 51.8537037,15.7407407 C54.5851852,20.5185185 55.2962963,23.7962963 55.4851852,27.7777778 L53.3296296,27.7777778 Z M37.037037,2.77777778 C42.4074074,2.77777778 46.4277778,3.2962963 48.5907407,5.83148148 L49.1462963,6.48148148 L50,6.48148148 C51.3740741,6.48148148 55.5555556,6.48148148 55.5555556,17.5925926 C55.5555556,18.0814815 55.55,18.5611111 55.5388889,19.0314815 C55.0092593,17.7296296 54.3314815,16.3462963 53.4592593,14.8222222 C52.462963,13.0796296 51.1018519,12.712963 50.1333333,12.712963 C48.7222222,12.712963 47.3759259,13.4537037 45.6703704,14.3944444 C43.0851852,15.8203704 39.8648148,17.5925926 35.1851852,17.5925926 C30.7074074,17.5925926 28.3925926,16.5111111 27.0111111,15.8666667 C26.262963,15.5185185 25.6722222,15.2425926 24.9740741,15.2425926 L24.9740741,15.2425926 C22.7388889,15.2425926 22.4314815,17.5888889 22.2388889,19.1740741 C22.2296296,18.6592593 22.2222222,18.1333333 22.2222222,17.5925926 C22.2222222,7.3462963 26.7907407,2.77777778 37.037037,2.77777778 Z" id="Shape" fill="#333333"></path>
                            <path d="M54.6851852,40.5055556 C55.1240741,39.0314815 55.4203704,37.5481481 55.5037037,36.1 C55.5222222,36.1018519 55.537037,36.1111111 55.5555556,36.1111111 C56.5740741,36.1111111 57.4074074,35.2777778 57.4074074,34.2592593 L57.4074074,32.4074074 C57.4074074,33.4259259 56.5740741,35.1851852 55.5555556,35.1851852 L53.9166667,35.1851852 C53.7740741,35.4333333 53.6722222,35.7018519 53.6555556,35.9944444 C53.5462963,37.862963 53.0888889,39.75 52.3944444,41.5666667 C53.1333333,41.1666667 53.9,40.8203704 54.6851852,40.5055556 Z" id="Shape" fill="#37474F"></path>
                            <path d="M76.8388889,66.5907407 C76.3351852,63.5648148 73.4851852,60.6222222 70.4777778,60.0222222 L62.037037,58.3333333 L62.037037,57.4074074 L50,53.7037037 L50,50.6574074 C49.2888889,51.5388889 48.6703704,52.4944444 48.1481481,53.5092593 L48.1481481,58.737037 C47.862963,59.1555556 47.2703704,59.8907407 46.3203704,60.6333333 C46.3166667,60.7944444 46.2962963,60.95 46.2962963,61.1111111 C46.2962963,61.6907407 46.3277778,62.2666667 46.3851852,62.8333333 C46.8240741,62.562963 47.2296296,62.2814815 47.5814815,62 L46.7425926,64.8777778 C46.9907407,65.9425926 47.337037,66.9666667 47.7777778,67.9425926 L51.2537037,56.0259259 L60.187037,58.7740741 L60.187037,61.7092593 L56.7222222,63.0944444 L54.1148148,64.137037 L56.1,66.1222222 L58.6222222,68.6444444 L53.5685185,74.862963 C54.0814815,75.212963 54.6148148,75.5351852 55.1685185,75.8277778 L61.1111111,68.5185185 L57.4074074,64.8148148 L62.037037,62.962963 L62.037037,60.2222222 L70.1166667,61.8388889 C72.3481481,62.2851852 74.637037,64.6481481 75.012963,66.8944444 L75.4814815,69.7111111 C75.5740741,70.2611111 75.637037,71.0314815 75.6740741,71.8666667 C76.2907407,71.1388889 76.8388889,70.3555556 77.3259259,69.5277778 C77.3185185,69.4888889 77.3148148,69.4407407 77.3092593,69.4055556 C77.0481481,67.8518519 76.8388889,66.5907407 76.8388889,66.5907407 Z" id="Shape" fill="#333333"></path>
                            <path d="M62.962963,83.3333333 C62.6907407,83.3333333 62.4240741,83.3018519 62.1518519,83.2925926 L38.8888889,97.8166667 L37.8388889,97.1611111 L51.6277778,80.1907407 C51.0925926,79.8722222 50.5722222,79.5351852 50.0666667,79.1740741 L41.3833333,89.862963 L45.6962963,75.0722222 C45.2037037,74.4648148 44.75,73.8259259 44.3240741,73.1685185 L38.8666667,91.8814815 L30.1851852,61.9851852 C31.9259259,63.3907407 34.7185185,64.8148148 38.8907407,64.8148148 C39.662963,64.8148148 40.3722222,64.7537037 41.0518519,64.6648148 C40.9537037,64.0611111 40.8740741,63.4518519 40.8277778,62.8333333 C40.2240741,62.912963 39.5833333,62.962963 38.8907407,62.962963 C32.9981481,62.962963 30.3481481,59.7925926 29.6296296,58.7407407 L29.6296296,51.2037037 C32.3851852,53.8333333 35.6296296,55.5555556 38.8888889,55.5555556 C39.787037,55.5555556 40.6851852,55.412963 41.5722222,55.1685185 C41.7814815,54.412963 42.0259259,53.6722222 42.3111111,52.9518519 C41.1703704,53.4259259 40.0166667,53.7037037 38.8888889,53.7037037 C32.2092593,53.7037037 24.6166667,44.6 24.1203704,35.9944444 C24.1037037,35.7037037 24.0037037,35.4333333 23.8592593,35.1851852 L22.2203704,35.1851852 C21.2018519,35.1851852 20.3685185,33.4259259 20.3685185,32.4074074 L20.3685185,34.2592593 C20.3685185,35.2777778 21.2018519,36.1111111 22.2203704,36.1111111 C22.2388889,36.1111111 22.2537037,36.1018519 22.2703704,36.1 C22.5314815,40.6185185 24.6814815,45.4962963 27.7759259,49.237037 L27.7759259,53.7037037 L15.7388889,57.4074074 L15.7388889,58.3351852 L7.2962963,60.0222222 C4.28703704,60.6222222 1.44074074,63.5648148 0.935185185,66.5907407 L0.466666667,69.4074074 C0.205555556,70.962963 0.133333333,73.8759259 0.303703704,75.9148148 L38.8888889,100 L65.9425926,83.1092593 C64.9648148,83.2407407 63.9759259,83.3333333 62.962963,83.3333333 Z M17.5925926,58.7740741 L26.5240741,56.0277778 L36.2481481,89.5111111 L19.1611111,68.6425926 L21.6777778,66.1240741 L23.662963,64.1388889 L21.0555556,63.0962963 L17.5925926,61.7092593 L17.5925926,58.7740741 Z M2.09814815,74.8462963 C2.02037037,73.0703704 2.09814815,70.8981481 2.2962963,69.7111111 L2.76481481,66.8944444 C3.1462963,64.6074074 5.38888889,62.2925926 7.66296296,61.8388889 L15.7407407,60.2222222 L15.7407407,62.962963 L20.3703704,64.8148148 L16.6666667,68.5185185 L38.0592593,94.6444444 L37.4037037,96.8888889 L2.09814815,74.8462963 Z" id="Shape" fill="#333333"></path>
                            <path d="M98.6907407,91.2833333 L82.7907407,75.3833333 C82.4314815,75.0240741 81.9555556,74.8444444 81.4814815,74.8444444 C81.187037,74.8444444 80.9018519,74.9388889 80.6333333,75.0777778 L79.0851852,73.5296296 C81.7388889,70.0907407 83.3333333,65.7907407 83.3333333,61.1111111 C83.3333333,49.8611111 74.212963,40.7407407 62.962963,40.7407407 C51.712963,40.7407407 42.5925926,49.8611111 42.5925926,61.1111111 C42.5925926,72.3611111 51.712963,81.4814815 62.962963,81.4814815 C67.6425926,81.4814815 71.9425926,79.887037 75.3814815,77.2333333 L76.9296296,78.7814815 C76.5666667,79.4796296 76.6518519,80.3555556 77.2351852,80.9388889 L93.1351852,96.8388889 C93.4944444,97.1981481 93.9703704,97.3777778 94.4444444,97.3777778 C94.9185185,97.3777778 95.3944444,97.1981481 95.7537037,96.8388889 L98.6907407,93.9018519 C99.4111111,93.1814815 99.4111111,92.0037037 98.6907407,91.2833333 Z M44.4444444,61.1111111 C44.4444444,50.8851852 52.737037,42.5925926 62.962963,42.5925926 C73.1888889,42.5925926 81.4814815,50.8851852 81.4814815,61.1111111 C81.4814815,71.337037 73.1888889,79.6296296 62.962963,79.6296296 C52.737037,79.6296296 44.4444444,71.337037 44.4444444,61.1111111 Z M77.8851852,74.9481481 L79.2462963,76.3092593 L78.1611111,77.3944444 L76.8,76.0333333 C77.1740741,75.6833333 77.5351852,75.3222222 77.8851852,74.9481481 Z M94.4444444,95.5296296 L78.5444444,79.6296296 L81.4759259,76.6962963 L81.4814815,76.6962963 L81.4814815,76.6925926 L97.3814815,92.5925926 L94.4444444,95.5296296 Z" id="Shape" fill="#333333"></path>
                        </g>
                    </g>
                </g>
            </g>
        </symbol>
        <symbol id="zen-calendar" viewBox="47 -1 107 82">
            <g id="1483062650_6" stroke="none" stroke-width="1" fill="none" fill-rule="evenodd" transform="translate(50.000000, 0.000000)">
                <g id="Layer_1" transform="translate(-0.000000, 0.000000)" stroke-width="2" stroke="#000000">
                    <g id="Group">
                        <path d="M66.2577636,4.8 L86.6643896,4.8" id="Shape"></path>
                        <path d="M41.0258209,4.8 L61.3474193,4.8" id="Shape"></path>
                        <path d="M15.623823,4.8 L35.8816506,4.8" id="Shape"></path>
                        <path d="M91.5109633,5.46031746 L101.267881,5.46031746 C101.693019,5.46031746 102.03313,5.7989418 102.03313,6.22222222 L102.03313,79.047619 C102.03313,79.4708995 101.693019,79.8095238 101.267881,79.8095238 L0.765248473,79.8095238 C0.340110433,79.8095238 -1.13686838e-13,79.4708995 -1.13686838e-13,79.047619 L-1.13686838e-13,6.22222222 C-1.13686838e-13,5.7989418 0.340110433,5.46031746 0.765248473,5.46031746 L10.2458268,5.46031746" id="Shape"></path>
                        <path d="M102.03313,20 L-1.13686838e-13,20" id="Shape"></path>
                        <g transform="translate(7.865054, 29.841270)" id="Shape">
                            <g>
                                <path d="M7.18483289,7.83068783 L0.977817494,7.83068783 C0.531422551,7.83068783 0.148798314,7.47089947 0.148798314,7.00529101 L0.148798314,0.825396825 C0.148798314,0.380952381 0.510165649,0 0.977817494,0 L7.18483289,0 C7.63122783,0 8.01385207,0.35978836 8.01385207,0.825396825 L8.01385207,7.00529101 C8.01385207,7.44973545 7.63122783,7.83068783 7.18483289,7.83068783 Z"></path>
                                <path d="M22.8086559,7.83068783 L16.6016405,7.83068783 C16.1552455,7.83068783 15.7726213,7.47089947 15.7726213,7.00529101 L15.7726213,0.825396825 C15.7726213,0.380952381 16.1339886,0 16.6016405,0 L22.8086559,0 C23.2550508,0 23.6376751,0.35978836 23.6376751,0.825396825 L23.6376751,7.00529101 C23.6376751,7.44973545 23.2763077,7.83068783 22.8086559,7.83068783 Z"></path>
                                <path d="M38.4324789,7.83068783 L32.2254635,7.83068783 C31.7790685,7.83068783 31.3964443,7.47089947 31.3964443,7.00529101 L31.3964443,0.825396825 C31.3964443,0.380952381 31.7578116,0 32.2254635,0 L38.4324789,0 C38.8788738,0 39.2614981,0.35978836 39.2614981,0.825396825 L39.2614981,7.00529101 C39.2614981,7.44973545 38.9001307,7.83068783 38.4324789,7.83068783 Z"></path>
                                <path d="M54.0775588,7.83068783 L47.8705434,7.83068783 C47.4241484,7.83068783 47.0415242,7.47089947 47.0415242,7.00529101 L47.0415242,0.825396825 C47.0415242,0.380952381 47.4028915,0 47.8705434,0 L54.0775588,0 C54.5239537,0 54.906578,0.35978836 54.906578,0.825396825 L54.906578,7.00529101 C54.906578,7.44973545 54.5239537,7.83068783 54.0775588,7.83068783 Z"></path>
                                <path d="M69.7013818,7.83068783 L63.4943664,7.83068783 C63.0479714,7.83068783 62.6653472,7.47089947 62.6653472,7.00529101 L62.6653472,0.825396825 C62.6653472,0.380952381 63.0267145,0 63.4943664,0 L69.7013818,0 C70.1477767,0 70.530401,0.35978836 70.530401,0.825396825 L70.530401,7.00529101 C70.530401,7.44973545 70.1477767,7.83068783 69.7013818,7.83068783 Z"></path>
                                <path d="M85.3252048,7.83068783 L79.1181894,7.83068783 C78.6717944,7.83068783 78.2891702,7.47089947 78.2891702,7.00529101 L78.2891702,0.825396825 C78.2891702,0.380952381 78.6505375,0 79.1181894,0 L85.3252048,0 C85.7715997,0 86.1542239,0.35978836 86.1542239,0.825396825 L86.1542239,7.00529101 C86.1542239,7.44973545 85.7928566,7.83068783 85.3252048,7.83068783 Z"></path>
                            </g>
                            <g transform="translate(0.000000, 15.873016)">
                                <path d="M7.18483289,7.97883598 L0.977817494,7.97883598 C0.531422551,7.97883598 0.148798314,7.61904762 0.148798314,7.15343915 L0.148798314,0.973544974 C0.148798314,0.529100529 0.510165649,0.148148148 0.977817494,0.148148148 L7.18483289,0.148148148 C7.63122783,0.148148148 8.01385207,0.507936508 8.01385207,0.973544974 L8.01385207,7.15343915 C8.01385207,7.61904762 7.63122783,7.97883598 7.18483289,7.97883598 Z"></path>
                                <path d="M22.8086559,7.97883598 L16.6016405,7.97883598 C16.1552455,7.97883598 15.7726213,7.61904762 15.7726213,7.15343915 L15.7726213,0.973544974 C15.7726213,0.529100529 16.1339886,0.148148148 16.6016405,0.148148148 L22.8086559,0.148148148 C23.2550508,0.148148148 23.6376751,0.507936508 23.6376751,0.973544974 L23.6376751,7.15343915 C23.6376751,7.61904762 23.2763077,7.97883598 22.8086559,7.97883598 Z"></path>
                                <path d="M38.4324789,7.97883598 L32.2254635,7.97883598 C31.7790685,7.97883598 31.3964443,7.61904762 31.3964443,7.15343915 L31.3964443,0.973544974 C31.3964443,0.529100529 31.7578116,0.148148148 32.2254635,0.148148148 L38.4324789,0.148148148 C38.8788738,0.148148148 39.2614981,0.507936508 39.2614981,0.973544974 L39.2614981,7.15343915 C39.2614981,7.61904762 38.9001307,7.97883598 38.4324789,7.97883598 Z"></path>
                                <path d="M54.0775588,7.97883598 L47.8705434,7.97883598 C47.4241484,7.97883598 47.0415242,7.61904762 47.0415242,7.15343915 L47.0415242,0.973544974 C47.0415242,0.529100529 47.4028915,0.148148148 47.8705434,0.148148148 L54.0775588,0.148148148 C54.5239537,0.148148148 54.906578,0.507936508 54.906578,0.973544974 L54.906578,7.15343915 C54.906578,7.61904762 54.5239537,7.97883598 54.0775588,7.97883598 Z"></path>
                                <path d="M69.7013818,7.97883598 L63.4943664,7.97883598 C63.0479714,7.97883598 62.6653472,7.61904762 62.6653472,7.15343915 L62.6653472,0.973544974 C62.6653472,0.529100529 63.0267145,0.148148148 63.4943664,0.148148148 L69.7013818,0.148148148 C70.1477767,0.148148148 70.530401,0.507936508 70.530401,0.973544974 L70.530401,7.15343915 C70.530401,7.61904762 70.1477767,7.97883598 69.7013818,7.97883598 Z"></path>
                                <path d="M85.3252048,7.97883598 L79.1181894,7.97883598 C78.6717944,7.97883598 78.2891702,7.61904762 78.2891702,7.15343915 L78.2891702,0.973544974 C78.2891702,0.529100529 78.6505375,0.148148148 79.1181894,0.148148148 L85.3252048,0.148148148 C85.7715997,0.148148148 86.1542239,0.507936508 86.1542239,0.973544974 L86.1542239,7.15343915 C86.1542239,7.61904762 85.7928566,7.97883598 85.3252048,7.97883598 Z"></path>
                            </g>
                            <g transform="translate(0.000000, 31.957672)">
                                <path d="M7.18483289,7.91534392 L0.977817494,7.91534392 C0.531422551,7.91534392 0.148798314,7.55555556 0.148798314,7.08994709 L0.148798314,0.91005291 C0.148798314,0.465608466 0.510165649,0.0846560847 0.977817494,0.0846560847 L7.18483289,0.0846560847 C7.63122783,0.0846560847 8.01385207,0.444444444 8.01385207,0.91005291 L8.01385207,7.08994709 C8.01385207,7.55555556 7.63122783,7.91534392 7.18483289,7.91534392 Z"></path>
                                <path d="M22.8086559,7.91534392 L16.6016405,7.91534392 C16.1552455,7.91534392 15.7726213,7.55555556 15.7726213,7.08994709 L15.7726213,0.91005291 C15.7726213,0.465608466 16.1339886,0.0846560847 16.6016405,0.0846560847 L22.8086559,0.0846560847 C23.2550508,0.0846560847 23.6376751,0.444444444 23.6376751,0.91005291 L23.6376751,7.08994709 C23.6376751,7.55555556 23.2763077,7.91534392 22.8086559,7.91534392 Z"></path>
                                <path d="M38.4324789,7.91534392 L32.2254635,7.91534392 C31.7790685,7.91534392 31.3964443,7.55555556 31.3964443,7.08994709 L31.3964443,0.91005291 C31.3964443,0.465608466 31.7578116,0.0846560847 32.2254635,0.0846560847 L38.4324789,0.0846560847 C38.8788738,0.0846560847 39.2614981,0.444444444 39.2614981,0.91005291 L39.2614981,7.08994709 C39.2614981,7.55555556 38.9001307,7.91534392 38.4324789,7.91534392 Z"></path>
                                <path d="M54.0775588,7.91534392 L47.8705434,7.91534392 C47.4241484,7.91534392 47.0415242,7.55555556 47.0415242,7.08994709 L47.0415242,0.91005291 C47.0415242,0.465608466 47.4028915,0.0846560847 47.8705434,0.0846560847 L54.0775588,0.0846560847 C54.5239537,0.0846560847 54.906578,0.444444444 54.906578,0.91005291 L54.906578,7.08994709 C54.906578,7.55555556 54.5239537,7.91534392 54.0775588,7.91534392 Z"></path>
                            </g>
                        </g>
                        <g transform="translate(10.628451, 0.000000)" id="Shape">
                            <path d="M3.76247166,11.8306878 L0.914046788,11.8306878 C0.510165649,11.8306878 0.191312118,11.5132275 0.191312118,11.1111111 L0.191312118,0.91005291 C0.191312118,0.507936508 0.510165649,0.19047619 0.914046788,0.19047619 L3.78372856,0.19047619 C4.1876097,0.19047619 4.50646323,0.507936508 4.50646323,0.91005291 L4.50646323,11.1111111 C4.48520633,11.4920635 4.1663528,11.8306878 3.76247166,11.8306878 Z"></path>
                            <path d="M29.1432127,11.8306878 L26.2735309,11.8306878 C25.8696498,11.8306878 25.5507962,11.5132275 25.5507962,11.1111111 L25.5507962,0.91005291 C25.5507962,0.507936508 25.8696498,0.19047619 26.2735309,0.19047619 L29.1432127,0.19047619 C29.5470938,0.19047619 29.8659474,0.507936508 29.8659474,0.91005291 L29.8659474,11.1111111 C29.8659474,11.4920635 29.5470938,11.8306878 29.1432127,11.8306878 Z"></path>
                            <path d="M54.5026968,11.8306878 L51.633015,11.8306878 C51.2291339,11.8306878 50.9102804,11.5132275 50.9102804,11.1111111 L50.9102804,0.91005291 C50.9102804,0.507936508 51.2291339,0.19047619 51.633015,0.19047619 L54.5026968,0.19047619 C54.906578,0.19047619 55.2254315,0.507936508 55.2254315,0.91005291 L55.2254315,11.1111111 C55.2254315,11.4920635 54.906578,11.8306878 54.5026968,11.8306878 Z"></path>
                            <path d="M79.8621809,11.8306878 L76.9924992,11.8306878 C76.588618,11.8306878 76.2697645,11.5132275 76.2697645,11.1111111 L76.2697645,0.91005291 C76.2697645,0.507936508 76.588618,0.19047619 76.9924992,0.19047619 L79.8621809,0.19047619 C80.2660621,0.19047619 80.5849156,0.507936508 80.5849156,0.91005291 L80.5849156,11.1111111 C80.5849156,11.4920635 80.2660621,11.8306878 79.8621809,11.8306878 Z"></path>
                        </g>
                    </g>
                </g>
            </g>
        </symbol>
        <symbol id="zen-stars" viewBox="67 0 94 80">
            <g id="1483064169_SEO_favorite" stroke="none" stroke-width="1" fill="none" fill-rule="evenodd" transform="translate(67.000000, 0.000000)">
                <g id="Icons" fill="#333333">
                    <g id="favorite">
                        <polygon id="Shape" points="28.1251064 64.3285106 26.6153191 65.8008511 25.9753191 66.4238298 26.1268085 67.307234 27.6774468 76.3523404 19.5548936 72.0817021 18.7617021 71.6646809 17.9702128 72.0817021 9.84765957 76.3523404 11.4 67.307234 11.5514894 66.4238298 10.9114894 65.8008511 4.33957447 59.3974468 13.4204255 58.0748936 14.3055319 57.947234 14.7021277 57.1438298 18.7617021 48.9174468 22.8229787 57.1438298 23.2195745 57.947234 24.1046809 58.0748936 29.0748936 58.8 29.3625532 57.1217021 24.3497872 56.3914894 18.7617021 45.0706383 13.1753191 56.3914894 0.68 58.2093617 9.72340426 67.0195745 7.58723404 79.4655319 18.7617021 73.586383 29.9378723 79.4655319 27.8034043 67.0195745"></polygon>
                        <polygon id="Shape" points="93.013617 58.2093617 80.52 56.3914894 74.9319149 45.0706383 69.3455319 56.3914894 63.9668085 57.1744681 64.2544681 58.852766 69.5906383 58.0748936 70.4757447 57.947234 70.8723404 57.1438298 74.9319149 48.9174468 78.9931915 57.1438298 79.3897872 57.947234 80.2748936 58.0748936 89.3557447 59.3974468 82.7855319 65.8008511 82.1455319 66.4238298 82.2970213 67.307234 83.8476596 76.3523404 75.7251064 72.0817021 74.9319149 71.6646809 74.1404255 72.0817021 66.0178723 76.3523404 67.5702128 67.307234 67.7217021 66.4238298 67.0817021 65.8008511 65.1191489 63.8876596 65.6076596 66.7421277 65.893617 67.0195745 63.7574468 79.4655319 74.9319149 73.586383 86.1080851 79.4655319 83.973617 67.0195745"></polygon>
                        <path d="M73.7029787,31.986383 L55.0153191,29.2697872 L46.6595745,12.3404255 L38.3055319,29.2697872 L19.6178723,31.986383 L33.1429787,45.1608511 L29.9480851,63.773617 L46.6595745,54.987234 L63.3710638,63.773617 L60.1778723,45.1608511 L73.7029787,31.986383 Z M61.1582979,60.7251064 L47.4374468,53.5148936 L46.6595745,53.1029787 L45.8817021,53.5131915 L32.1608511,60.7234043 L34.7855319,45.4434043 L34.933617,44.5753191 L34.3038298,43.9676596 L23.2025532,33.1523404 L38.5455319,30.9191489 L39.4153191,30.7931915 L39.8,30.0085106 L46.6595745,16.1106383 L53.5225532,30.0102128 L53.907234,30.7948936 L54.7770213,30.9208511 L70.1182979,33.1540426 L59.0170213,43.9693617 L58.3889362,44.5770213 L58.5370213,45.4451064 L61.1582979,60.7251064 Z" id="Shape"></path>
                        <rect id="Rectangle-path" transform="translate(12.687565, 12.836200) rotate(48.401196) translate(-12.687565, -12.836200) " x="1.68944251" y="11.9851498" width="21.9962443" height="1.70210047"></rect>
                        <rect id="Rectangle-path" transform="translate(9.282796, 26.451636) rotate(20.225425) translate(-9.282796, -26.451636) " x="1.25334894" y="25.601459" width="16.058895" height="1.70035359"></rect>
                        <rect id="Rectangle-path" transform="translate(27.154594, 10.284739) rotate(73.614663) translate(-27.154594, -10.284739) " x="17.5067952" y="9.43281166" width="19.2955967" height="1.7038543"></rect>
                        <rect id="Rectangle-path" transform="translate(80.770052, 12.837647) rotate(41.598804) translate(-80.770052, -12.837647) " x="79.9190021" y="1.83952464" width="1.70210047" height="21.9962443"></rect>
                        <rect id="Rectangle-path" transform="translate(84.183088, 26.457289) rotate(159.774575) translate(-84.183088, -26.457289) " x="76.1536402" y="25.6071119" width="16.058895" height="1.70035359"></rect>
                        <rect id="Rectangle-path" transform="translate(66.305577, 10.287547) rotate(16.385337) translate(-66.305577, -10.287547) " x="65.4536495" y="0.639748964" width="1.7038543" height="19.2955967"></rect>
                    </g>
                </g>
            </g>
        </symbol>
        <symbol id="zen-separator" viewBox="171 186 46 8">
            <path d="M174,190 L214,190" id="Line" stroke="#DDDDDD" stroke-width="5" stroke-linecap="round" stroke-dasharray="1,10" fill="none"></path>
        </symbol>

        <symbol id="description-clock" viewBox="0 0 32 32">
            <g id="layer1" transform="translate(0,-1020.3622)">
                <g id="g11753" transform="translate(-1158.1669,1455.9053)">
                    <path d="m 1187.6127,-419.3869 c -10e-5,7.32235 -6.0298,13.10203 -13.3521,13.102 -7.3223,-3e-5 -13.5394,-6.37344 -13.5395,-13.69575 10e-5,-7.32231 6.2172,-12.82072 13.5395,-12.82075 7.3223,-3e-5 13.352,6.09215 13.3521,13.4145 z" id="path11985" style="opacity:1;fill:none;fill-opacity:1;stroke:#ffffff;stroke-width:1.00157475;stroke-linecap:round;stroke-linejoin:round;stroke-miterlimit:4;stroke-dasharray:none;stroke-opacity:1"/><path d="m 1174.173,-431.0816 -0.088,1.6572" id="path11988" style="fill:none;fill-rule:evenodd;stroke:#ffffff;stroke-width:1.00157475;stroke-linecap:round;stroke-linejoin:round;stroke-miterlimit:4;stroke-dasharray:none;stroke-opacity:1"/><path d="m 1179.1448,-428.2753 0.5525,-1.0165" id="path11990" style="fill:none;fill-rule:evenodd;stroke:#ffffff;stroke-width:1.00157475;stroke-linecap:round;stroke-linejoin:round;stroke-miterlimit:4;stroke-dasharray:none;stroke-opacity:1"/><path d="m 1182.9234,-424.6735 1.0165,-0.5082" id="path11992" style="fill:none;fill-rule:evenodd;stroke:#ffffff;stroke-width:1.00157475;stroke-linecap:round;stroke-linejoin:round;stroke-miterlimit:4;stroke-dasharray:none;stroke-opacity:1"/><path d="m 1184.3376,-419.4807 1.1712,0" id="path11994" style="fill:none;fill-rule:evenodd;stroke:#ffffff;stroke-width:1.00157475;stroke-linecap:round;stroke-linejoin:round;stroke-miterlimit:4;stroke-dasharray:none;stroke-opacity:1"/><path d="m 1182.9455,-414.3099 0.906,0.4198" id="path11996" style="fill:none;fill-rule:evenodd;stroke:#ffffff;stroke-width:1.00157475;stroke-linecap:round;stroke-linejoin:round;stroke-miterlimit:4;stroke-dasharray:none;stroke-opacity:1"/><path d="m 1179.2995,-410.6197 0.3757,0.8397" id="path11998" style="fill:none;fill-rule:evenodd;stroke:#ffffff;stroke-width:1.00157475;stroke-linecap:round;stroke-linejoin:round;stroke-miterlimit:4;stroke-dasharray:none;stroke-opacity:1"/><path d="m 1174.0782,-409.2785 -0.016,1.0781" id="path12000" style="fill:none;fill-rule:evenodd;stroke:#ffffff;stroke-width:1.00157475;stroke-linecap:round;stroke-linejoin:round;stroke-miterlimit:4;stroke-dasharray:none;stroke-opacity:1"/><path d="m 1169.047,-410.7941 -0.5938,0.9687" id="path12002" style="fill:none;fill-rule:evenodd;stroke:#ffffff;stroke-width:1.00157475;stroke-linecap:round;stroke-linejoin:round;stroke-miterlimit:4;stroke-dasharray:none;stroke-opacity:1"/><path d="m 1164.3619,-413.9785 1.0164,-0.5303" id="path12004" style="fill:none;fill-rule:evenodd;stroke:#ffffff;stroke-width:1.00157475;stroke-linecap:round;stroke-linejoin:round;stroke-miterlimit:4;stroke-dasharray:none;stroke-opacity:1"/><path d="m 1162.8372,-419.4365 1.0164,-0.044" id="path12006" style="fill:none;fill-rule:evenodd;stroke:#ffffff;stroke-width:1.00157475;stroke-linecap:round;stroke-linejoin:round;stroke-miterlimit:4;stroke-dasharray:none;stroke-opacity:1"/><path d="m 1164.4282,-425.1375 0.7955,0.5303" id="path12008" style="fill:none;fill-rule:evenodd;stroke:#ffffff;stroke-width:1.00157475;stroke-linecap:round;stroke-linejoin:round;stroke-miterlimit:4;stroke-dasharray:none;stroke-opacity:1"/><path d="m 1168.5382,-429.2255 0.442,0.7955" id="path12010" style="fill:none;fill-rule:evenodd;stroke:#ffffff;stroke-width:1.00157475;stroke-linecap:round;stroke-linejoin:round;stroke-miterlimit:4;stroke-dasharray:none;stroke-opacity:1"/><path d="m 1174.1951,-423.9001 -0.066,4.2206 -2.5633,-6.1872" id="path12012" style="fill:none;fill-rule:evenodd;stroke:#ffffff;stroke-width:1.00157475;stroke-linecap:round;stroke-linejoin:round;stroke-miterlimit:4;stroke-dasharray:none;stroke-opacity:1"/>
                </g>
            </g>
        </symbol>
        <symbol id="description-brain" viewBox="0 0 56 60">
            <g fill="#ffffff" transform="translate(-2.000000, 0.000000)">
                <path d="M22,27 C22,27.551 22.448,28 23,28 C23.552,28 24,27.551 24,27 C24,26.449 23.552,26 23,26 C22.448,26 22,26.449 22,27 L22,27 Z M24,45 C24,44.449 23.552,44 23,44 C22.448,44 22,44.449 22,45 C22,45.551 22.448,46 23,46 C23.552,46 24,45.551 24,45 L24,45 Z M16,27 C16,26.449 15.552,26 15,26 C14.448,26 14,26.449 14,27 C14,27.551 14.448,28 15,28 C15.552,28 16,27.551 16,27 L16,27 Z M16,39 C16,38.449 15.552,38 15,38 C14.448,38 14,38.449 14,39 C14,39.551 14.448,40 15,40 C15.552,40 16,39.551 16,39 L16,39 Z M22,17 C22,17.551 22.448,18 23,18 C23.552,18 24,17.551 24,17 C24,16.449 23.552,16 23,16 C22.448,16 22,16.449 22,17 L22,17 Z M16,18 L16,24.184 C16.848,24.486 17.514,25.153 17.815,26 L20.185,26 C20.599,24.838 21.698,24 23,24 C24.654,24 26,25.346 26,27 C26,28.302 25.161,29.401 24,29.816 L24,42.184 C25.161,42.599 26,43.698 26,45 C26,46.302 25.161,47.401 24,47.816 L24,51 C24,51.552 23.553,52 23,52 C22.447,52 22,51.552 22,51 L22,47.815 C20.979,47.452 20.218,46.558 20.047,45.46 L16.293,41.707 C16.29,41.705 16.29,41.701 16.287,41.698 C15.896,41.886 15.463,42 15,42 C13.346,42 12,40.654 12,39 C12,37.346 13.346,36 15,36 C16.654,36 18,37.346 18,39 C18,39.462 17.886,39.896 17.698,40.287 C17.701,40.29 17.704,40.291 17.707,40.293 L20.614,43.201 C20.965,42.737 21.443,42.383 22,42.184 L22,29.815 C21.152,29.514 20.486,28.847 20.185,28 L17.815,28 C17.401,29.162 16.302,30 15,30 C13.346,30 12,28.654 12,27 C12,25.698 12.839,24.599 14,24.184 L14,17 C14,16.448 14.447,16 15,16 L20.185,16 C20.486,15.153 21.152,14.486 22,14.184 L22,11 C22,10.448 22.447,10 23,10 C23.553,10 24,10.448 24,11 L24,14.184 C25.161,14.599 26,15.698 26,17 C26,18.654 24.654,20 23,20 C21.698,20 20.599,19.162 20.185,18 L16,18 Z M55.633,37.245 C57.122,35.936 58,34.042 58,32 C58,29.86 57.049,27.894 55.415,26.574 C55.8,25.771 56,24.896 56,24 C56,21.936 54.917,20.035 53.208,18.95 C53.724,18.051 54,17.037 54,16 C54,13.42 52.361,11.177 49.989,10.349 C49.996,10.232 50,10.116 50,10 C50,6.691 47.309,4 44,4 C43.193,4 42.407,4.164 41.673,4.48 C40.813,1.876 38.34,0 35.5,0 C31.292,0 29.421,3.796 29.02,5.804 C29.013,5.837 29.022,5.869 29.02,5.903 C29.017,5.937 29,5.965 29,6 L29,52.94 C28.774,55.779 26.363,58 23.5,58 C20.647,58 18.243,55.771 18.026,52.924 C17.986,52.403 17.522,52 17,52 C16.688,52 16.394,52.146 16.204,52.394 C15.428,53.415 14.26,54 13,54 C10.794,54 9,52.206 9,50 C9,49.092 9.316,48.224 9.916,47.489 C10.186,47.158 10.216,46.691 9.989,46.328 C9.763,45.965 9.335,45.785 8.913,45.884 C8.578,45.962 8.279,46 8,46 C5.794,46 4,44.206 4,42 C4,40.351 5.047,38.851 6.604,38.267 C6.975,38.128 7.229,37.784 7.252,37.39 C7.275,36.995 7.063,36.623 6.713,36.442 C5.039,35.579 4,33.876 4,32 C4,30.236 4.907,28.636 6.427,27.72 C6.664,27.577 6.831,27.342 6.889,27.071 C6.946,26.799 6.888,26.517 6.729,26.29 C6.252,25.609 6,24.818 6,24 C6,22.339 7.058,20.836 8.631,20.259 C8.942,20.145 9.177,19.884 9.258,19.563 C9.338,19.241 9.253,18.9 9.032,18.653 C8.366,17.91 8,16.968 8,16 C8,14.062 9.389,12.411 11.301,12.073 C11.569,12.025 11.808,11.87 11.959,11.643 C12.11,11.416 12.162,11.137 12.104,10.871 C12.034,10.559 12,10.274 12,10 C12,7.794 13.794,6 16,6 C16.866,6 17.701,6.289 18.416,6.836 C18.707,7.058 19.096,7.104 19.429,6.956 C19.764,6.807 19.99,6.488 20.021,6.124 C20.211,3.812 22.179,2 24.5,2 C25.614,2 26.535,2.358 27.315,3.094 C27.718,3.473 28.351,3.454 28.729,3.052 C29.108,2.65 29.09,2.018 28.688,1.639 C27.535,0.551 26.126,0 24.5,0 C21.66,0 19.187,1.876 18.327,4.48 C17.593,4.164 16.807,4 16,4 C12.691,4 10,6.691 10,10 C10,10.116 10.004,10.232 10.011,10.349 C7.639,11.177 6,13.42 6,16 C6,17.037 6.276,18.051 6.792,18.95 C5.083,20.035 4,21.936 4,24 C4,24.896 4.2,25.771 4.585,26.574 C2.951,27.894 2,29.86 2,32 C2,34.042 2.878,35.936 4.367,37.245 C2.906,38.362 2,40.116 2,42 C2,45.093 4.353,47.647 7.363,47.966 C7.123,48.614 7,49.298 7,50 C7,53.309 9.691,56 13,56 C14.242,56 15.424,55.623 16.416,54.932 C17.436,57.886 20.255,60 23.5,60 C27.408,60 30.701,56.958 30.997,53.076 C30.998,53.063 30.992,53.051 30.992,53.038 C30.993,53.024 31,53.014 31,53 L31,6.11 C31.148,5.496 32.135,2 35.5,2 C37.821,2 39.789,3.812 39.979,6.124 C40.01,6.488 40.236,6.807 40.571,6.956 C40.904,7.104 41.293,7.058 41.584,6.836 C42.299,6.289 43.134,6 44,6 C46.206,6 48,7.794 48,10 C48,10.274 47.966,10.559 47.896,10.871 C47.838,11.137 47.89,11.416 48.041,11.643 C48.192,11.87 48.431,12.025 48.699,12.073 C50.611,12.411 52,14.062 52,16 C52,16.968 51.634,17.91 50.968,18.653 C50.747,18.9 50.662,19.241 50.742,19.563 C50.823,19.884 51.058,20.145 51.369,20.259 C52.942,20.836 54,22.339 54,24 C54,24.818 53.748,25.609 53.271,26.29 C53.112,26.517 53.054,26.799 53.111,27.071 C53.169,27.342 53.336,27.577 53.573,27.72 C55.093,28.636 56,30.236 56,32 C56,33.876 54.961,35.579 53.287,36.442 C52.937,36.623 52.725,36.995 52.748,37.39 C52.771,37.784 53.025,38.128 53.396,38.267 C54.953,38.851 56,40.351 56,42 C56,44.206 54.206,46 52,46 C51.721,46 51.422,45.962 51.087,45.884 C50.667,45.785 50.238,45.965 50.011,46.328 C49.784,46.691 49.814,47.158 50.084,47.489 C50.684,48.224 51,49.092 51,50 C51,52.206 49.206,54 47,54 C45.736,54 44.57,53.408 43.802,52.375 C43.544,52.03 43.095,51.889 42.686,52.023 C42.538,52.072 42.408,52.153 42.303,52.256 C42.117,52.422 41.994,52.658 41.974,52.924 C41.757,55.771 39.353,58 36.5,58 C35.243,58 34.057,57.587 33.07,56.806 C32.635,56.463 32.008,56.537 31.665,56.969 C31.322,57.402 31.396,58.031 31.828,58.374 C33.153,59.422 34.813,60 36.5,60 C39.747,60 42.568,57.882 43.586,54.925 C44.575,55.621 45.755,56 47,56 C50.309,56 53,53.309 53,50 C53,49.298 52.877,48.614 52.637,47.966 C55.647,47.647 58,45.093 58,42 C58,40.116 57.094,38.362 55.633,37.245 L55.633,37.245 Z M38,45 C38,45.552 38.447,46 39,46 C40.458,46 42,47.542 42,49 C42,49.552 42.447,50 43,50 C43.553,50 44,49.552 44,49 C44,46.43 41.57,44 39,44 C38.447,44 38,44.448 38,45 L38,45 Z M47,18 C45.542,18 44,16.458 44,15 C44,14.448 43.553,14 43,14 C42.447,14 42,14.448 42,15 C42,17.57 44.43,20 47,20 C47.553,20 48,19.552 48,19 C48,18.448 47.553,18 47,18 L47,18 Z M35,40 C35.553,40 36,39.552 36,39 C36,37.542 37.542,36 39,36 C39.553,36 40,35.552 40,35 C40,34.448 39.553,34 39,34 C36.43,34 34,36.43 34,39 C34,39.552 34.447,40 35,40 L35,40 Z M39,28 C39.553,28 40,27.552 40,27 C40,26.448 39.553,26 39,26 C37.542,26 36,24.458 36,23 C36,22.448 35.553,22 35,22 C34.447,22 34,22.448 34,23 C34,25.57 36.43,28 39,28 L39,28 Z M49,24 C48.447,24 48,24.448 48,25 C48,26.458 46.458,28 45,28 C44.447,28 44,28.448 44,29 C44,29.552 44.447,30 45,30 C47.57,30 50,27.57 50,25 C50,24.448 49.553,24 49,24 L49,24 Z M45,36 C44.447,36 44,36.448 44,37 C44,37.552 44.447,38 45,38 C46.458,38 48,39.542 48,41 C48,41.552 48.447,42 49,42 C49.553,42 50,41.552 50,41 C50,38.43 47.57,36 45,36 L45,36 Z M34,14 C34,11.43 36.43,9 39,9 C39.553,9 40,9.448 40,10 C40,10.552 39.553,11 39,11 C37.542,11 36,12.542 36,14 C36,14.552 35.553,15 35,15 C34.447,15 34,14.552 34,14 L34,14 Z"/>
            </g>
        </symbol>
        <symbol id="description-finger" viewBox="0 0 4017 7130">
            <g fill="#ffffff">
                <path d="M1904 1674l0 1627c42,-24 87,-41 132,-53 102,-27 209,-25 308,-1 100,24 192,72 261,137 20,19 38,39 54,60 31,-23 65,-41 100,-53 66,-23 138,-27 208,-13l0 0c68,14 135,45 193,92 58,47 107,109 141,187 40,-30 81,-51 123,-66l8 -2c79,-25 161,-26 237,-3 77,23 149,69 206,134 84,96 140,236 140,406l0 1381c0,130 -57,349 -146,525l0 0 0 0c-59,117 -134,218 -221,274l0 713c0,61 -50,111 -111,111l-11 -1 -2145 0c-61,0 -111,-50 -111,-111l-1 0 0 -617 -431 -379c-9,-8 -17,-18 -23,-28l0 0 -727 -1268c-24,-34 -43,-74 -55,-113l-2 -7c-12,-42 -19,-86 -19,-127l0 -1118c0,-61 50,-111 111,-111l3 0 342 0c125,0 232,48 310,127 78,80 124,191 124,314l0 485 112 82 0 -2574c0,-215 119,-354 270,-416 56,-23 117,-34 178,-34 61,0 122,11 178,33 148,60 263,196 263,407zm848 -986c53,-31 121,-12 152,40 31,53 12,121 -40,152l-674 389c-53,31 -121,12 -152,-40 -31,-53 -12,-121 40,-152l674 -389zm111 1557c53,30 71,98 41,151 -30,53 -98,71 -151,41l-674 -389c-53,-30 -71,-98 -41,-151 30,-53 98,-71 151,-41l674 389zm-2696 192c-53,31 -121,12 -152,-40 -31,-53 -12,-121 40,-152l674 -389c53,-31 121,-12 152,40 31,53 12,121 -40,152l-674 389zm-111 -1557c-53,-30 -71,-98 -41,-151 30,-53 98,-71 151,-41l674 389c53,30 71,98 41,151 -30,53 -98,71 -151,41l-674 -389zm1292 -769c0,-61 50,-111 111,-111 61,0 111,50 111,111l0 778c0,61 -50,111 -111,111 -61,0 -111,-50 -111,-111l0 -778zm2446 5396l0 -1381c0,-113 -33,-202 -84,-260 -29,-34 -65,-57 -102,-68 -34,-10 -71,-10 -107,1l-4 2c-56,19 -113,66 -159,145 -18,37 -56,63 -100,63 -61,0 -111,-50 -111,-111 0,-120 -17,-286 -203,-302 -32,-6 -64,-5 -93,5 -41,14 -77,48 -97,102 -12,48 -56,85 -108,85 -61,0 -111,-50 -111,-111 0,-50 -24,-95 -62,-130 -41,-39 -98,-68 -161,-83 -64,-15 -134,-16 -200,1 -79,21 -152,70 -201,154 -19,35 -56,59 -98,59 -61,0 -111,-50 -111,-111l0 -1890c0,-106 -55,-173 -124,-201 -30,-12 -63,-18 -94,-18 -32,0 -64,7 -95,19 -73,30 -130,100 -130,210l0 2792 0 0c0,23 -7,46 -21,66 -36,49 -106,60 -155,24l-328 -239c-31,-20 -52,-55 -52,-94l0 -541c0,-64 -22,-120 -60,-159 -36,-37 -88,-59 -151,-59l-234 0 0 1007c0,21 3,43 10,64l1 3c6,19 14,37 24,52 4,5 7,9 10,15l720 1255 493 483 0 556 1934 0 0 -660c0,-50 34,-107 84,-120 52,-13 110,-94 161,-195l0 0m0 0c73,-146 121,-323 121,-425"></path>
            </g>
        </symbol>
        <symbol id="description-paper" viewBox="0 0 64 64">
            <path d="M59.565,2.186H17.649c-2.449,0-4.425,2.016-4.425,4.476v5.995c-0.025,0.507-0.182,1.315-0.938,1.312   c0,0,0,0-0.001,0c-1.655-0.008-4.06-0.019-7.007-0.03c-3.778-0.018-4.921,2.689-5.267,4.542v32.487c0,0,0.114,3.153,0.881,5.034   c0.38,0.836,0.861,1.679,1.462,2.562c0.968,1.421,2.447,2.172,3.659,2.569l-0.003,0.001c0,0,0.581,0.465,4.905,0.68h49.11   c2.228-0.234,3.965-2.111,3.965-4.429V6.662C63.989,4.202,62.014,2.186,59.565,2.186z M13.436,46.989   c0,1.386-0.396,5.117-0.475,5.848c-0.035,0.198-0.059,0.383-0.101,0.591l0.003-0.002c0,0-0.364,2.287-0.966,3.894   c-0.237,0.678-0.736,0.927-1.001,1.011c-2.921,0.508-4.443-0.52-4.785-0.8c-0.429-0.407-0.889-0.973-1.335-1.823   c-0.016-0.028-0.035-0.049-0.049-0.078c-0.032-0.062-0.051-0.122-0.081-0.184c-0.075-0.153-0.15-0.288-0.224-0.456   c-0.038-0.089-0.059-0.171-0.085-0.255c-0.879-2.022-1.275-3.878-1.267-6.119c0.008-2.572,0.084-26.323,0.084-26.323   s-0.203-5.439,3.42-5.417c3.073,0.019,5.22,0.032,5.807,0.035l0,0h0.003c0.103,0.002,0.173,0.002,0.173,0.002h0.025   c0.304,0.03,0.846,0.228,0.851,1.286l-0.002,0.602h0.006V46.989z M60.949,54.502c0,2.214-1.732,4.002-3.88,4.002H20.2   c-1.085-0.005-2.375-0.013-3.673-0.031c-0.98-0.015-1.208-0.642-1.24-1.139c0.042-0.896,0.263-2.113,0.412-2.837   c0.038-0.171,0.073-0.339,0.107-0.512c0.013-0.059,0.022-0.1,0.022-0.1l0,0c0.44-2.223,0.554-4.331,0.554-4.331h-0.003   c0.019-0.316,0.028-0.591,0.028-0.767c0-0.174,0-0.266,0-0.266V9.115c0-2.202,1.736-4.004,3.882-4.004h36.779   c2.147,0,3.88,1.802,3.88,4.004V54.502z" fill="#ffffff"/><path d="M24.245,15.435h28.967c0,0,2.035-0.163,2.012,1.491c0,0.606-0.046,1.492-2.075,1.492   c-2.027,0-28.903,0-28.903,0s-1.54-0.214-1.492-1.494C22.775,16.204,23.173,15.435,24.245,15.435z" fill="#ffffff"/><path d="M24.245,22.956h28.967c0,0,2.035-0.163,2.012,1.492c0,0.607-0.046,1.492-2.075,1.492   c-2.027,0-28.903,0-28.903,0s-1.54-0.214-1.492-1.494C22.775,23.726,23.173,22.956,24.245,22.956z" fill="#ffffff"/><path d="M23.995,30.511h28.969c0,0,2.035-0.163,2.011,1.492c0,0.606-0.046,1.492-2.074,1.492   c-2.027,0-28.906,0-28.906,0s-1.538-0.214-1.492-1.494C22.528,31.281,22.924,30.511,23.995,30.511z" fill="#ffffff"/><path d="M23.995,37.784h28.969c0,0,2.035-0.163,2.011,1.492c0,0.605-0.046,1.492-2.074,1.492   c-2.027,0-28.906,0-28.906,0s-1.538-0.214-1.492-1.493C22.528,38.555,22.924,37.784,23.995,37.784z" fill="#ffffff"/><path d="M23.995,45.368h28.969c0,0,2.035-0.163,2.011,1.492c0,0.606-0.046,1.492-2.074,1.492   c-2.027,0-28.906,0-28.906,0s-1.538-0.212-1.492-1.493C22.528,46.139,22.924,45.368,23.995,45.368z" fill="#ffffff"/>
        </symbol>
        <symbol id="description-person" viewBox="0 0 10106 13474">
            <g fill="#ffffff">
                <path class="fil0" d="M1188 6527c72,-548 296,-1051 627,-1464 376,-470 893,-824 1484,-998l118 -35 88 86c203,198 445,358 713,466 257,104 540,162 836,162 296,0 578,-58 835,-162 268,-108 510,-268 713,-466l88 -86 118 35c592,174 1108,529 1484,998 331,413 555,916 627,1464l322 0c237,0 454,97 610,254l0 0 0 0c157,157 254,373 254,610l0 4385c0,293 -120,560 -313,753 -193,193 -460,313 -753,313l-832 0 0 210 1036 0 0 421 -8401 0 0 -421 1056 0 0 -210 -833 0c-293,0 -560,-120 -753,-313 -193,-193 -313,-460 -313,-753l0 -4385c0,-237 97,-454 254,-610l0 0 0 0c157,-157 373,-254 610,-254l322 0zm3444 2947l842 0 0 421 -842 0 0 -421zm3154 3369l-5466 0 0 210 5466 0 0 -210zm708 -6316c-69,-449 -257,-861 -530,-1201 -300,-374 -702,-663 -1163,-823 -222,196 -477,356 -755,468 -307,125 -643,193 -993,193 -351,0 -686,-69 -993,-193 -278,-113 -533,-272 -755,-468 -461,159 -863,449 -1163,823 -273,340 -461,752 -530,1201l6883 0zm746 421l-8374 0c-123,0 -234,50 -314,130l-1 1c-80,80 -130,191 -130,314l0 4385c0,177 73,338 189,455 117,117 278,189 455,189l7974 0c177,0 338,-73 455,-189 117,-117 189,-278 189,-455l0 -4385c0,-123 -50,-234 -130,-314l-1 -1c-80,-80 -191,-130 -314,-130zm-4187 -6948c566,0 1079,230 1450,601 371,371 601,884 601,1450 0,566 -230,1078 -601,1449l-1 1c-371,371 -884,601 -1449,601 -565,0 -1078,-230 -1449,-601l-1 -1c-371,-371 -601,-884 -601,-1449 0,-565 230,-1078 601,-1449l1 -1c371,-371 884,-601 1449,-601zm1153 899c-295,-295 -702,-477 -1153,-477 -451,0 -858,182 -1153,476l-1 1c-294,294 -476,702 -476,1153 0,451 182,858 476,1153l1 1c294,294 702,476 1153,476 450,0 858,-183 1153,-477 294,-295 477,-703 477,-1153 0,-450 -183,-858 -477,-1153z"></path>
            </g>
        </symbol>
        <symbol id="description-growth" viewBox="0 0 16787 16787">
            <g fill="#ffffff">
                <path d="M1574 0l0 15213 524 0 0 -3147 0 -262 262 0 2623 0 262 0 0 262 0 3147 524 0 0 -5770 0 -262 262 0 2623 0 262 0 0 262 0 5770 524 0 0 -8393 0 -262 262 0 2623 0 262 0 0 262 0 8393 524 0 0 -11016 0 -262 262 0 2623 0 262 0 0 262 0 11016 524 0 0 525 -15213 0 0 1050 -525 0 0 -1050 -1050 0 0 -525 1050 0 0 -15213 525 0zm11360 539l1574 524 180 60 0 188 0 1574 -525 0 0 -1065 -10603 7573 -303 -426 10599 -7570 -1086 -362 164 -496zm-10312 14674l2098 0 0 -2885 -2098 0 0 2885zm3672 0l2098 0 0 -5507 -2098 0 0 5507zm3672 0l2098 0 0 -8131 -2098 0 0 8131zm3672 0l2098 0 0 -10754 -2098 0 0 10754z"/>
            </g>
        </symbol>

        <symbol id="service-beauty" viewBox="0 0 85 80">
            <path d="M75.4418875,52.5536116 C74.9986207,51.1094011 74.2466788,49.7534664 73.1629764,48.6153176 C70.2357895,45.5583303 65.7788748,44.7571688 62.2111071,46.4996007 C62.1825045,46.5046824 62.166824,46.4917604 62.1332849,46.4996007 C58.1014882,48.3118693 51.7932486,44.5030853 48.5704537,43.458294 C46.8021779,42.8852269 45.1920145,41.6445735 43.6415245,40.5427223 C46.089147,40.7021416 48.6664247,42.0166969 49.8642468,42.6415971 C50.0975681,42.7607985 50.2998185,42.6519056 50.1649365,42.4885662 C49.0656987,41.2039201 48.1582577,40.0085662 47.6137931,38.880726 L50.7146279,41.7029401 L51.1398911,41.2387659 L47.1625408,37.6193103 C47.0899456,37.3055535 47.0638113,36.9983303 47.0744102,36.6924138 L51.557314,40.7734301 L51.9799637,40.3092559 L47.1883848,35.9520871 C47.2428312,35.7550635 47.3180399,35.5592015 47.4113975,35.3647913 L52.3740109,39.8761525 L52.799274,39.4108167 L47.7434483,34.8164065 C47.8626497,34.6504537 47.9896915,34.4923412 48.1374955,34.3276951 L53.2193103,38.9494011 L53.6419601,38.4852269 L48.5575318,33.8623593 C48.6793466,33.7274773 48.8219238,33.5732849 48.9826497,33.3983303 L54.0646098,38.0198911 L54.4897278,37.5583303 L49.4080581,32.9328494 C49.5271143,32.8005808 49.664755,32.6514701 49.7994918,32.5011978 L54.8813067,37.1253721 L55.3038113,36.6611978 L50.2221416,32.0383303 C50.3336479,31.913902 50.4500907,31.7868603 50.5695826,31.6508167 L55.6513975,36.2762976 L56.0740472,35.8122686 L50.9920871,31.1894011 C51.1295826,31.0352087 51.2695463,30.8808711 51.4147368,30.7252269 L56.4965517,35.3495463 L56.916588,34.8853721 L51.8349183,30.2598911 C51.9670417,30.1186207 52.0966969,29.9760436 52.2289655,29.8269328 L57.3107804,34.4498004 L57.7334301,33.9843194 L52.6490018,29.3678403 C52.7862069,29.2136479 52.9238475,29.0593103 53.0690381,28.9025045 L58.150853,33.5253721 L58.5710345,33.0638113 L53.4890744,28.4409437 C53.6291833,28.2867514 53.769147,28.1337205 53.9143376,27.9767695 L58.9961525,32.6010889 L59.4161887,32.1369147 L54.3371325,27.5114338 C54.4692559,27.3714701 54.5989111,27.2275862 54.7285662,27.0823956 L59.8103811,31.7039564 L60.2304174,31.2399274 L55.1487477,26.6170599 C55.2524138,26.5055535 55.3560799,26.3914338 55.4545191,26.2825408 L60.5363339,30.9054083 L60.9589837,30.4399274 L55.8771688,25.8183666 C56.0197459,25.6614156 56.1597096,25.5072232 56.2996733,25.3528857 L61.3816334,29.9757532 L61.8067514,29.5115789 L56.7250817,24.8887114 C56.8547368,24.7448276 56.9868603,24.6022505 57.1191289,24.4557532 L62.2009437,29.0812341 L62.62098,28.6157532 L57.5393103,23.9941924 C57.679274,23.84 57.8192377,23.6856624 57.9618149,23.5287114 L63.043775,28.1541924 L63.4611978,27.6901633 L58.3844646,23.0594555 C58.5268966,22.9052632 58.6645372,22.7483122 58.8097278,22.5939746 L63.8915426,27.2194555 L64.3117241,26.7554265 L59.2297641,22.1299456 C59.3646461,21.9873684 59.4943013,21.8408711 59.6239564,21.6969873 L64.7057713,26.3198548 L65.1310345,25.8558258 L60.046461,21.2329583 C60.1579673,21.1085299 60.2694737,20.9852632 60.3835935,20.8634483 L65.4652632,25.4863158 L65.8880581,25.0208348 L60.806098,20.399274 C60.9357532,20.2578584 61.0654083,20.1126679 61.1950635,19.9689292 L66.2768784,24.5917967 L66.6995281,24.1263158 L61.6177132,19.5046098 C61.7343013,19.3762613 61.8510345,19.2466062 61.9676225,19.1195644 L67.0495826,23.7437387 L67.4720871,23.2797096 L62.3902722,18.6542287 C62.5302359,18.5000363 62.6728131,18.344392 62.812922,18.1926679 L67.8947368,22.8143739 L68.3149183,22.3503448 L63.2329583,17.7274773 C63.3678403,17.5822868 63.5001089,17.4357895 63.6271506,17.2956806 L68.7089655,21.9173866 L69.1316152,21.4532123 L64.0496552,16.8303448 C64.1922323,16.6709256 64.3323412,16.5205082 64.4723049,16.3663158 L69.5541198,20.9917967 L69.9741561,20.5263158 L64.8924864,15.9073684 C65.037677,15.747804 65.1776407,15.5909982 65.3176044,15.4418875 L70.3995644,20.064755 L70.8196007,19.599274 L65.7430127,14.9775681 C65.8777495,14.8284574 66.0072595,14.6858802 66.1343013,14.5446098 L71.2162613,19.1661706 L71.6387659,18.7046098 L66.5570962,14.0804356 C66.6659891,13.9625408 66.7644283,13.8536479 66.8628675,13.744755 L71.9446824,18.3676225 L72.3673321,17.9060617 L67.2829038,13.2779673 C67.4382577,13.1080944 67.5783666,12.953902 67.7054083,12.8137931 L72.7873684,17.4354991 L73.209873,16.9714701 L68.1277677,12.3513612 C68.3455535,12.1101996 68.4698367,11.9741561 68.4698367,11.9741561 C68.4879855,11.9560073 68.5035209,11.9404719 68.5216697,11.9197096 L73.6036298,16.5438838 L74.0236661,16.0798548 L68.941706,11.4569873 C69.0868966,11.2974229 69.2294737,11.1445372 69.3671143,10.9928131 L74.4489292,15.6169873 L74.8715789,15.1555717 L69.7896189,10.5300907 C69.9374229,10.3654446 70.0773866,10.2098004 70.2122686,10.0685299 L75.2940835,14.6913975 L75.7193466,14.2259165 L70.6375318,9.60435572 C70.7905626,9.43724138 70.9176044,9.29582577 71.0289655,9.17139746 L76.1107804,13.7931034 L76.5334301,13.3315426 L71.4566969,8.71245009 C71.5708167,8.57901996 71.6849365,8.46228675 71.8042831,8.35339383 L76.8653358,12.956951 L77.2904537,12.4927768 L72.317677,7.97096189 C72.5145554,7.84653358 72.716951,7.74794918 72.9192015,7.67157895 L77.7106352,12.031216 L78.1358984,11.5683485 L73.6502359,7.48733212 C73.9561525,7.44842105 74.2622142,7.44580762 74.5811978,7.48471869 L78.5584029,11.1043194 L78.9811978,10.6388385 L75.8802178,7.81662432 C77.0263521,8.23927405 78.2655535,9.00413793 79.6137931,9.94656987 C79.7952813,10.0736116 79.9795281,9.92842105 79.8368058,9.70802178 C77.1014156,5.4999637 71.2702722,4.22693285 68.9989111,6.72116152 C68.5167332,7.2538657 67.4770236,8.39346642 66.1443194,9.8584392 C66.1443194,9.8584392 57.8474047,18.9784392 51.8037024,25.6238113 C51.5522323,25.8973503 51.3033757,26.1735027 51.0622142,26.4392015 C48.5705989,29.1745917 46.5690018,31.3745191 45.8715064,32.1393829 L40,38.5967332 C39.9663158,38.5888929 39.9313249,38.5694374 39.8963339,38.5617423 C39.7290744,38.5241379 39.427078,38.4075499 39.0044283,38.2272232 L21.037677,0.109618875 L30.8850817,33.4189474 C30.8850817,33.4189474 30.9705989,33.7300907 31.1107078,34.2719419 C18.9829401,27.8989474 0,15.7232668 0,15.7232668 C0,15.7232668 32.2372414,43.8755717 33.3948457,44.8193103 C33.4429038,45.0941561 33.5115789,45.3716152 33.5776407,45.6490744 L11.2513975,70.1872958 L11.9631216,70.8354265 L34.2090744,47.7544828 C36.200363,53.3418512 40.2203993,59.193902 36.0071143,62.1807623 C35.9968058,62.1989111 36.0071143,62.2170599 35.9994192,62.2378221 C32.2022505,64.9056987 31.3739383,70.5450454 34.2208348,75.0253358 C37.1441016,79.627441 42.8223593,81.273902 46.8826134,78.6966243 C49.3769873,77.1124501 50.6163339,73.9051906 51.5911434,70.8198911 C50.7589111,68.3411978 50.0718693,67.449147 48.9464973,65.6757895 C48.2102359,64.5168784 47.2975681,63.5494737 46.2812341,62.7821416 C44.0773866,60.6870417 37.6291833,45.0449365 38.2877677,43.5851906 C46.1491107,43.4684574 56.193539,49.5822868 57.3369147,55.2682396 C57.3472232,55.2682396 57.3679855,55.2527042 57.3784392,55.2474773 C57.5702359,57.4434846 58.4673684,59.5255172 60.0386207,61.1668966 C63.2017423,64.4725953 68.172196,65.1777858 71.846098,62.8442831 C72.3281307,62.5385118 72.7818512,62.1832305 73.1941924,61.7865699 C74.6928494,60.3554265 75.5666062,58.4679492 75.7999274,56.409147 C76.6555354,56.1056987 77.8950272,55.8023956 79.0694737,56.0669328 C83.4098004,57.2001452 84.5817786,53.6270054 84.6699093,52.5097641 C84.7578947,51.4517604 78.4831942,54.5787296 75.4418875,52.5536116 Z M33.1136116,40.956225 C32.5536116,40.0785481 32.8153902,38.9065699 33.6943739,38.3465699 C34.5784392,37.7890381 35.7438838,38.0496552 36.3014156,38.9312523 C36.8614156,39.8127042 36.6022505,40.9807623 35.7206534,41.5409074 C34.8416697,42.098294 33.6709982,41.8378221 33.1136116,40.956225 Z M40.8103085,63.7933938 C41.0307078,63.8166243 41.2509619,63.8347731 41.4688929,63.8555354 C43.34098,64.1537568 45.2076951,65.3517241 46.4315064,67.2728857 C48.4720145,70.4878403 47.9560073,74.4808711 45.2853721,76.1764065 C42.614882,77.8745554 38.7788022,76.643049 36.7396007,73.4307078 C34.7003993,70.2182214 35.2137931,66.2202541 37.8842831,64.5244283 C38.7684936,63.9593466 39.7796007,63.7492559 40.8103085,63.7933938 Z M71.1406171,59.6294737 C70.8656261,59.8886388 70.5700181,60.1271869 70.2539383,60.3294374 C67.7701633,61.9005445 64.3838838,61.3872958 62.1981851,59.1003993 C60.9769873,57.824755 60.2976407,56.178294 60.2821053,54.4749183 C60.2691833,52.7973866 60.904392,51.2651906 62.0686751,50.1502722 C62.3409074,49.8909619 62.6389837,49.6550272 62.9553539,49.4553902 C65.4366606,47.8815245 68.8201815,48.3975318 71.005735,50.676588 C72.2296915,51.9548457 72.9062795,53.603775 72.9218149,55.3072958 C72.9347368,56.9796007 72.2969147,58.519637 71.1406171,59.6294737 Z" id="Shape" stroke="none" fill="#666666" fill-rule="evenodd"></path>
        </symbol>
        <symbol id="service-fitness" viewBox="0 0 61 80">
            <g id="weightlifting" stroke="none" stroke-width="1" fill="none" fill-rule="evenodd">
                <g id="Layer_1" fill="#666666">
                    <circle id="Oval" cx="30.2495127" cy="29.862768" r="6.2722807"></circle>
                    <path d="M21.8276803,69.9862768 L21.8276803,72.8810916 L21.8275244,72.8810916 C21.8275244,74.9790253 23.5284211,76.679922 25.6263548,76.679922 C27.7242885,76.679922 29.4251852,74.9790253 29.4251852,72.8810916 L29.4251852,69.9862768 L21.8276803,69.9862768 Z" id="Shape"></path>
                    <path d="M31.0652632,69.9862768 L31.0652632,72.8810916 L31.0651072,72.8810916 C31.0651072,74.9790253 32.7660039,76.679922 34.8639376,76.679922 C36.9618713,76.679922 38.662768,74.9790253 38.662768,72.8810916 L38.662768,69.9862768 L31.0652632,69.9862768 Z" id="Shape"></path>
                    <ellipse id="Oval" cx="30.2442105" cy="6.56077973" rx="6.56077973" ry="6.56077973"></ellipse>
                    <polygon id="Shape" points="33.9482261 64.1472125 26.5646784 64.1472125 18.8597271 67.5362183 41.6528655 67.5362183"></polygon>
                    <path d="M58.4874854,33.5159454 L56.8846784,33.5159454 L56.8846784,28.14846 C56.8846784,27.5936062 56.4347758,27.1433918 55.8796101,27.1433918 L53.1340351,27.1433918 C52.5790253,27.1433918 52.1291228,27.5934503 52.1291228,28.14846 L52.1291228,33.5159454 L48.6195712,33.5159454 C48.7136062,32.5274074 48.2788304,31.6104483 47.5454191,31.042963 L49.6790643,31.042963 L49.7149318,27.6787524 L47.1048733,25.5259259 L40.5299025,16.9222612 C39.7676413,15.9246784 38.5832359,15.3403509 37.3275634,15.3420663 L23.1560234,15.362963 C21.9050292,15.3648343 20.7262378,15.948538 19.9663158,16.9422222 L13.3169591,25.6378947 L10.8269786,28.1277193 C10.8269786,28.1348928 10.8280702,28.1415984 10.8280702,28.1487719 L10.8280702,31.0432749 L12.9704483,31.0432749 C12.237037,31.6106043 11.8022612,32.5277193 11.8962963,33.5162573 L8.3780117,33.5162573 L8.3780117,28.1487719 C8.3780117,27.5937622 7.92810916,27.1437037 7.37294347,27.1437037 L4.62752437,27.1437037 C4.07251462,27.1437037 3.62261209,27.5937622 3.62261209,28.1487719 L3.62261209,33.5162573 L2.01980507,33.5162573 C0.96920078,33.5162573 0.117582846,34.3678752 0.117582846,35.4184795 C0.117582846,36.4690838 0.96920078,37.3207018 2.01980507,37.3207018 L3.62261209,37.3207018 L3.62261209,42.6881871 C3.62261209,43.2431969 4.07251462,43.6930994 4.62752437,43.6930994 L7.37309942,43.6930994 C7.92826511,43.6930994 8.37816764,43.2431969 8.37816764,42.6881871 L8.37816764,37.3207018 L12.297232,37.3207018 C12.4174659,38.4587914 13.2687719,46.5071345 13.3947758,47.6973099 C13.6474074,50.0853021 16.6560624,51.0956725 18.2753996,49.2413255 C20.1373879,47.1103314 19.9781676,47.2924756 22.2008577,44.7490058 L22.2008577,55.4361014 C21.1444834,55.8652632 13.222924,59.0838207 12.0439766,59.562729 C10.8583236,60.0444444 10.0138791,61.1146979 9.82066277,62.3797271 L7.7939961,75.6647173 C7.49146199,77.6478752 8.85411306,79.5001949 10.8366472,79.802729 C12.8191813,80.1052632 14.6719688,78.7432359 14.9746589,76.760078 L16.6902144,65.5153216 C18.4478752,64.8012476 24.2624561,62.4388304 26.0862378,61.6977778 L34.4271345,61.6977778 C38.4096686,63.3158674 43.4894347,65.3796491 43.8231579,65.5153216 L45.5387135,76.760078 C45.8418713,78.7472904 47.702924,80.1038596 49.6767251,79.802729 C51.6591033,79.5001949 53.0217544,77.6480312 52.7193762,75.6647173 L50.6927096,62.3797271 C50.4998051,61.1145419 49.6552047,60.0444444 48.4693957,59.562729 C46.8405458,58.9008967 39.3239766,55.8470175 38.2318908,55.4033528 L38.2318908,55.4031969 L38.2318908,44.6534113 C40.8979337,47.7044834 39.8077193,46.4569201 42.2409357,49.2414815 C43.8270565,51.0582456 46.8636257,50.1369201 47.1217154,47.6974659 C47.2475634,46.5071345 48.0987135,38.4592593 48.2192593,37.3208577 L52.1295906,37.3208577 L52.1295906,42.6883431 C52.1295906,43.2433528 52.5794932,43.6934113 53.1345029,43.6934113 L55.880078,43.6934113 C56.4350877,43.6934113 56.8851462,43.2435088 56.8851462,42.6883431 L56.8851462,37.3208577 L58.4879532,37.3208577 C59.5382456,37.3207018 60.3900195,36.4690838 60.3900195,35.4184795 C60.3900195,34.3678752 59.5379337,33.5159454 58.4874854,33.5159454 Z M18.277115,40.7494737 C18.125848,39.3191423 18.1534503,39.5811306 17.9145419,37.3203899 L21.2736062,37.3203899 C20.0562963,38.7131384 19.5109552,39.3375439 18.277115,40.7494737 Z M42.2387524,40.7494737 C40.994308,39.3253801 40.4740741,38.7299805 39.2424172,37.3203899 L42.6014815,37.3203899 C42.3198441,39.9830019 42.3890838,39.3272515 42.2387524,40.7494737 Z M43.0038207,33.5159454 L38.1670175,33.5159454 C36.740117,36.5966472 33.6606628,38.5858869 30.2492008,38.5858869 C26.8776608,38.5858869 23.7751267,36.6329825 22.331384,33.5159454 L17.5122027,33.5159454 C17.4520078,32.9473684 17.4442105,31.7729435 16.2619883,30.9559454 L17.2968421,29.9212476 C17.388694,29.8297076 17.7632749,29.4426511 17.8420273,29.3397271 L21.8262768,24.1244444 L21.8262768,27.6012476 C22.825575,23.8853801 26.2222222,21.1413645 30.2493567,21.1413645 C34.1763743,21.1413645 37.5045614,23.7504873 38.5939961,27.325848 L38.5939961,24.0099805 L42.665731,29.3397271 C42.8010916,29.5168811 42.9562573,29.6779727 43.1282651,29.819883 L44.3959454,30.8654971 C43.1001949,31.6506823 43.0718129,32.8728265 43.0038207,33.5159454 Z" id="Shape"></path>
                </g>
            </g>
        </symbol>
        <symbol id="service-dance" viewBox="0 0 44 80">
            <path d="M41.8073552,33.1431738 C41.5465995,32.8018136 38.7421662,29.2419144 34.8068514,28.6069521 L29.6935013,23.4938035 L22.5178841,1.05128463 C22.2960202,0.35768262 21.6201511,-0.0642821159 20.9235264,0.0080604534 C20.8725441,0.00302267003 20.8207557,0.000201511335 20.7683627,0.000201511335 C19.9337028,0.000201511335 19.2570277,0.676675063 19.2570277,1.51153652 L19.2570277,27.5979849 L3.0543073,27.5979849 L3.0543073,1.51153652 C3.0543073,0.676675063 2.37763224,0.000201511335 1.54297229,0.000201511335 C0.708312343,0.000201511335 0.0316372796,0.676675063 0.0316372796,1.51153652 L0.0316372796,48.0245844 C0.0316372796,48.0538035 0.0344584383,48.0826196 0.036070529,48.1116373 C0.0346599496,48.1323929 0.0344584383,48.1533501 0.0338539043,48.1745088 C0.0332493703,48.1890176 0.0316372796,48.203728 0.0316372796,48.2186398 C0.0316372796,48.8852393 0.0669017632,49.5445844 0.132191436,50.1948615 C0.454206549,55.7662469 1.63486146,71.875869 4.81309824,79.0271033 C5.05571788,79.5729975 5.59697733,79.9246348 6.19425693,79.9246348 L11.1556675,79.9246348 L16.1170781,79.9246348 C16.7143577,79.9246348 17.2556171,79.5729975 17.4982368,79.0271033 C17.884131,78.1587909 18.2402015,77.1580856 18.569068,76.06267 L20.7613098,79.2667003 C21.0430227,79.6783879 21.5097229,79.9246348 22.008665,79.9246348 L27.5903275,79.9246348 C28.4249874,79.9246348 29.1016625,79.2481612 29.1016625,78.4132997 C29.1016625,62.5938539 38.0320403,47.4903778 41.8714358,41.7311839 C44.3089169,38.0749622 42.9025693,34.5261461 41.8073552,33.1431738 Z M3.05309824,48.1541562 C3.0524937,48.1420655 3.05047859,48.1303778 3.04967254,48.1182872 C3.05148615,48.0870529 3.0543073,48.0562217 3.0543073,48.0245844 L3.0543073,45.2114861 C3.07687657,45.1949622 3.09984887,45.1796474 3.12161209,45.1617128 L11.2330479,38.506398 L19.2568262,45.0899748 L19.2568262,48.0247859 C19.2568262,48.0574307 19.2596474,48.089471 19.2616625,48.1217128 C19.2596474,48.1537531 19.2568262,48.1857935 19.2568262,48.2184383 C19.2568262,48.2631738 19.2548111,48.3071033 19.2544081,48.3518388 C19.2453401,48.5493199 19.2187406,49.0952141 19.1709824,49.9095214 C18.6019144,55.5655416 15.2249874,59.9244332 11.1552645,59.9244332 C7.12080605,59.9244332 3.76664987,55.6407053 3.15465995,50.0558186 C3.08574307,48.8906801 3.05471033,48.1920403 3.05309824,48.1541562 Z M19.2572292,31.9226196 L19.2572292,41.1802519 L13.6159194,36.551335 L19.2572292,31.9226196 Z M22.2798992,29.6906801 L28.1289673,26.203728 L31.4321411,29.5069018 C29.0887657,31.1653401 26.7020655,34.6420151 24.8918892,37.724131 C24.035466,39.182267 23.1308816,40.8824181 22.2798992,42.6919899 L22.2798992,29.6906801 L22.2798992,29.6906801 Z M26.560403,23.6197481 L22.2796977,26.1714861 L22.2796977,10.2315365 L26.560403,23.6197481 Z M16.0787909,30.6206549 L11.2332494,34.596272 L6.38770781,30.6206549 L16.0787909,30.6206549 L16.0787909,30.6206549 Z M8.85078086,36.551335 L3.05450882,41.3074055 L3.05450882,31.7956675 L8.85078086,36.551335 Z M15.1038791,76.9017632 L11.1556675,76.9017632 L7.20765743,76.9017632 C5.58206549,72.6115869 4.54670025,65.5020655 3.91617128,59.4264987 C5.92221662,61.7055919 8.45460957,62.9473048 11.1556675,62.9473048 C13.8599496,62.9473048 16.3953652,61.7023678 18.4024181,59.4178338 C17.7728967,65.4805038 16.7359194,72.5988917 15.1038791,76.9017632 Z M39.3565743,40.0542065 C35.4855416,45.8607557 26.6375819,60.8229723 26.1041814,76.9015617 L22.8058438,76.9015617 L19.5566751,72.1525441 C21.031738,65.2747607 21.7632242,56.6782872 22.0777834,51.9320907 C22.976927,48.2861461 24.8995466,43.7251385 27.3706801,39.4728463 C30.7808564,33.6046348 33.3440806,31.5721914 33.9766247,31.5453904 C36.959597,31.7940554 39.3831738,34.9485139 39.404937,34.9771285 C39.4158186,34.9920403 39.4129975,34.9884131 39.4244836,35.0027204 C39.6052393,35.2384887 41.1379345,37.3821662 39.3565743,40.0542065 Z" id="Shape" stroke="none" fill="#666666" fill-rule="evenodd"></path>
        </symbol>
        <symbol id="service-music" viewBox="-1 0 84 80">
            <g id="Group" stroke="none" stroke-width="1" fill="none" fill-rule="evenodd">
                <path d="M81.6485504,0.796068796 C80.8385258,-0.0202457002 79.63086,-0.172972973 78.643145,0.416314496 L64.9413268,8.59321867 C64.6305651,8.77857494 64.3988206,9.07184275 64.2903194,9.41700246 L63.7871253,11.0177887 C63.6931695,11.3165602 63.5247174,11.5897789 63.2998526,11.8077641 L34.7296314,39.4834398 C34.1318919,39.4909091 33.6689926,39.3401474 33.3558722,39.0272236 C32.5576413,38.2289926 32.734742,37.5825061 32.8273219,37.3717936 C32.8660442,37.3102703 34.6514005,34.3701229 34.6934644,34.2973956 C36.4919902,31.1827027 37.2827518,27.670172 36.9814251,24.1204914 C36.5039803,18.5086978 34.8499263,11.0836364 29.6813759,7.57936118 C26.9497789,5.72717445 23.587027,5.19941032 19.6682064,5.99292383 C17.4710565,5.67351351 15.0191646,5.91921376 12.3284521,6.73454545 C8.26555283,7.96599509 5.15302211,10.5637346 3.07813268,14.4560197 C-3.31636364,26.4513022 2.0355774,47.2662408 3.29257985,51.7061425 C1.38633907,53.9093857 0.342997543,56.6903194 0.342800983,59.6328256 C0.342604423,62.8754791 1.60550369,65.9241278 3.89857494,68.2173956 L12.0829484,76.401769 C14.4495332,78.7683538 17.5581327,79.9516462 20.6669287,79.9516462 C23.7757248,79.9516462 26.8843243,78.7683538 29.2509091,76.401769 C29.9632432,75.6894349 30.5835872,74.8925799 31.0958231,74.0318428 C32.6289926,71.998231 33.8215233,69.1577396 34.6403931,65.5880098 C35.1213759,63.4970025 36.60914,61.7706143 38.6197543,60.9700246 C40.9340541,60.0487469 44.1415233,58.4682064 45.5646192,57.0451106 C46.8678133,55.7419165 47.4401966,54.4108108 47.3660934,52.8560197 C47.3004423,51.4834398 46.6478624,50.3017199 45.6204423,49.6951351 C44.742801,49.1766093 43.6851106,49.1516462 42.7082064,49.6312531 C42.5515479,49.709484 42.4200491,49.7727764 42.3123342,49.8205405 C40.194398,50.7854545 38.7591155,50.9138084 38.0465848,50.2010811 C37.0997543,49.2542506 38.316855,47.5679607 38.5130221,47.3096806 L68.5326781,16.5574447 L69.6363636,15.4537592 C70.5069287,14.5833907 71.923145,14.5835872 72.7935135,15.4537592 C73.113317,15.7737592 73.562457,15.9288452 74.0119902,15.8749877 C74.4613268,15.8209337 74.8609337,15.5636364 75.0958231,15.1768059 L82.0043243,3.80402948 C82.6016708,2.82142506 82.4585749,1.61257985 81.6485504,0.796068796 Z M64.9195086,14.3439803 L65.7564619,15.1809337 L33.5426044,48.1802457 L31.7942015,46.4318428 L64.9195086,14.3439803 Z M34.0436364,24.3701229 C34.1951843,26.155086 34.0106143,27.9294349 33.5107617,29.6275184 C33.0274201,29.2377396 32.4632924,28.9719902 31.8622113,28.8511057 C31.9072236,24.7948894 31.4478624,14.2895332 25.854742,8.99007371 C26.6362654,9.22830467 27.3623587,9.56894349 28.0269287,10.019656 C30.3488943,11.5939066 33.2774447,15.3615725 34.0436364,24.3701229 Z M10.6132678,47.5215725 C9.47695332,42.7496806 7.99312039,34.8976904 8.28992629,27.3712039 C8.68599509,17.3287469 12.1136118,11.2587715 18.4778378,9.33012285 C18.8923833,9.20452088 19.2974939,9.09818182 19.6961179,9.0044226 C21.027027,9.26722359 22.2134644,9.80363636 23.2436364,10.6219165 C28.8247666,15.0539558 28.9733661,26.2722359 28.8980835,29.4415725 C25.6687961,31.1561671 23.2194595,34.4648649 21.4303686,39.5227518 C20.3333661,42.6219165 17.9023096,45.0187715 14.7616708,46.0984767 L10.6132678,47.5215725 Z M5.68,15.843145 C7.03980344,13.2921867 8.8646683,11.474398 11.2200491,10.3257002 C10.0239803,11.5335627 9.00068796,12.9688452 8.16216216,14.6346929 C6.49140049,17.9540049 5.5431941,22.2000983 5.34388206,27.2548403 C5.02879607,35.2438329 6.61837838,43.5215725 7.80029484,48.4353808 C7.61297297,48.5134152 6.37071253,49.123145 5.76373464,49.5233415 C4.19420147,43.4386241 0.365601966,25.8118919 5.68,15.843145 Z M35.9614742,52.2857985 C37.6334152,53.9579361 40.1814251,54.0310565 43.5205897,52.5098771 C43.6448157,52.4548403 43.8195577,52.3718919 44.0169042,52.2730221 C44.0815725,52.2413759 44.1208845,52.2342998 44.1161671,52.2313514 C44.1967568,52.2655528 44.3986241,52.5344472 44.4208354,52.9967568 C44.4450123,53.5034889 44.347715,54.0921867 43.4797052,54.9601966 C42.6114988,55.8284029 40.1090909,57.2037346 37.5292383,58.2307617 C34.6189681,59.3896806 32.4648649,61.8928747 31.7668796,64.9279607 C31.0482555,68.0609337 29.9966585,70.6016708 28.724914,72.2789189 C28.6785258,72.3363145 28.6366585,72.3972482 28.599312,72.4609337 C28.2052088,73.1357248 27.7230467,73.7601966 27.1661916,74.316855 C23.5827027,77.900344 17.7515479,77.900344 14.1678624,74.316855 L6.09710074,66.2460934 C4.34437346,64.4933661 3.29592138,62.1299263 3.29120393,59.6511057 C3.28668305,57.1893857 4.24314496,54.8742998 5.98348894,53.1341523 C6.70643735,52.4110074 7.54162162,51.8160197 8.46584767,51.3655037 C8.47154791,51.3627518 8.47724816,51.36 8.48275184,51.3570516 C9.1441769,51.0396069 11.3320885,50.3917445 11.3320885,50.3917445 L15.719312,48.886683 C19.7163636,47.5127273 22.8110074,44.4581818 24.2101229,40.5059459 C25.78457,36.0548403 27.8470762,33.2430467 30.5022113,31.9304177 C30.5391646,31.9121376 30.5761179,31.8942506 30.6132678,31.8765602 C30.834398,31.7714005 31.0816708,31.7314988 31.324226,31.7651106 C31.3841769,31.7733661 31.4087469,31.7806388 31.4761671,31.8026536 C31.7047666,31.877543 31.8278133,32.0811794 31.8903194,32.1824079 C31.9027027,32.2022604 31.918231,32.2291892 31.934742,32.2622113 C32.0939558,32.5792629 32.0644717,32.9598034 31.8769533,33.2607371 C31.8484521,33.3065356 31.8197543,33.351941 31.7906634,33.3973464 C30.8094349,34.6767568 30.3184275,35.7515479 30.1922359,36.0483538 C30.0721376,36.2930713 29.8278133,36.8835381 29.8028501,37.6748894 C29.7753317,38.5454545 30.0078624,39.8482555 31.2715479,41.111941 C31.572285,41.4124816 31.9089926,41.6611302 32.2759705,41.8604423 L28.6914988,45.3326781 C28.5423096,45.4771499 28.414742,45.6457985 28.3351351,45.8376413 C28.0957248,46.4137592 28.2380344,47.0451106 28.6506143,47.4574939 L32.5132187,51.3199017 C32.7897789,51.5964619 33.1646192,51.7517445 33.5555774,51.7517445 L33.5644226,51.7517445 C33.955774,51.7517445 34.3306143,51.5939066 34.6040295,51.3138084 L35.0219165,50.8857002 C35.2165111,51.3712039 35.5198034,51.8441278 35.9614742,52.2857985 Z M73.3786732,12.3247174 C71.5805405,11.5007371 69.4050123,11.7592138 67.8441278,13.0987715 L66.6116953,11.8663391 L66.9352334,10.8373464 L78.4609337,3.95911548 L73.3786732,12.3247174 Z" id="Shape" fill="#666666"></path>
                <path d="M16.7335627,58.5468305 C16.1578378,57.9711057 15.2243735,57.9711057 14.6488452,58.5468305 C14.0731204,59.1225553 14.0731204,60.0560197 14.6488452,60.6315479 L19.3389681,65.3216708 C19.6267322,65.6094349 20.0041278,65.7535135 20.3813268,65.7535135 C20.7585258,65.7535135 21.1359214,65.6096314 21.4236855,65.3216708 C21.9994103,64.7459459 21.9994103,63.8124816 21.4236855,63.2369533 L16.7335627,58.5468305 Z" id="Shape" fill="#666666"></path>
                <path d="M21.9064373,54.4774447 C21.3307125,53.9017199 20.3972482,53.9017199 19.8217199,54.4774447 C19.2459951,55.0531695 19.2459951,55.9866339 19.8217199,56.5621622 L23.4083538,60.1487961 C23.6961179,60.4365602 24.0735135,60.5806388 24.4507125,60.5806388 C24.8279115,60.5806388 25.2053071,60.4367568 25.4930713,60.1487961 C26.0687961,59.5730713 26.0687961,58.6396069 25.4930713,58.0640786 L21.9064373,54.4774447 Z" id="Shape" fill="#666666"></path>
                <path d="M27.4924816,48.8914005 C26.9167568,48.3156757 25.9832924,48.3156757 25.4077641,48.8914005 C24.8320393,49.4671253 24.8320393,50.4005897 25.4077641,50.9761179 L28.994398,54.5627518 C29.2821622,54.850516 29.6595577,54.9945946 30.0367568,54.9945946 C30.4139558,54.9945946 30.7913514,54.8507125 31.0791155,54.5627518 C31.6548403,53.987027 31.6548403,53.0535627 31.0791155,52.4780344 L27.4924816,48.8914005 Z" id="Shape" fill="#666666"></path>
            </g>
        </symbol>
        <symbol id="service-health" viewBox="0 -1 69 81">
            <path d="M10.4915068,41.8331507 C10.6369863,43.4463014 11.5449315,44.9641096 13.0643836,45.8150685 C14.3257534,46.5216438 15.6257534,47.0410959 16.9536986,47.3928767 C16.2054795,49.9180822 14.8306849,53.5726027 12.3835616,57.4865753 C10.0591781,61.2063014 10.0315068,65.6950685 12.310411,69.8035616 C15.6676712,75.8583562 23.0808219,79.9271233 30.76,79.9271233 C36.0339726,79.9271233 40.7227397,77.4983562 43.9613699,73.0876712 C48.590411,66.7816438 49.6161644,57.4753425 46.7035616,48.1983562 C44.0038356,39.5986301 47.6145205,35.0106849 50.0035616,33.0386301 C51.9512329,34.9156164 54.5928767,36.0731507 57.5126027,36.0731507 C63.4950685,36.0731507 68.3482192,31.2213699 68.3482192,25.2358904 C68.3482192,19.250411 63.4950685,14.4 57.5126027,14.4 C51.5271233,14.4 46.6767123,19.2517808 46.6767123,25.2358904 C46.6767123,26.0786301 46.7816438,26.8942466 46.9632877,27.6816438 C42.4517808,30.9816438 37.2438356,38.409589 40.8884932,50.0230137 C43.1868493,57.3460274 42.4816438,64.8008219 39.0454795,69.48 C37.5887671,71.4660274 34.9668493,73.8326027 30.7583562,73.8326027 C25.3134247,73.8326027 19.9183562,70.959726 17.64,66.8484932 C16.7994521,65.3320548 16.1035616,63.0350685 17.5528767,60.7156164 C20.789589,55.5345205 22.409589,50.699726 23.1778082,47.7446575 C24.9767123,47.4736986 26.7331507,46.8934247 28.4227397,45.9912329 C29.9287671,45.1868493 30.8528767,43.7312329 31.0564384,42.1580822 C38.2156164,35.6860274 41.5210959,24.0246575 41.7112329,23.3421918 C42.0972603,21.9421918 41.4375342,20.5049315 40.2076712,19.849589 C41.1964384,11.0950685 37.9561644,6.68273973 36.0010959,4.88547945 C36.150137,4.04438356 35.8136986,3.14465753 35.0747945,2.66246575 L31.4821918,0.314520548 C30.5438356,-0.298356164 29.3641096,0.0109589041 28.849863,1.00958904 L27.1380822,4.31780822 C26.6224658,5.31671233 27.0769863,6.38191781 28.1539726,6.69972603 L32.2156164,7.8969863 C33.2454795,8.20054795 34.4791781,7.70849315 35.0621918,6.8060274 C36.6808219,8.51123288 39.0117808,12.3076712 38.2087671,19.549863 C37.1049315,19.76 36.1589041,20.5641096 35.8383562,21.720274 C34.8624658,25.2230137 32.0438356,32.4580822 27.8589041,36.7964384 C26.5268493,36.2816438 24.9953425,36.3071233 23.6369863,37.030411 C22.7523288,37.5030137 21.8871233,37.7410959 20.9991781,37.759726 L20.8161644,37.759726 C19.8805479,37.739726 18.9668493,37.4758904 18.0312329,36.9526027 C16.7063014,36.2093151 15.1972603,36.1438356 13.8665753,36.6134247 C9.77534247,32.2572603 7.01671233,25.1753425 6.0569863,21.7208219 C5.73561644,20.5676712 4.78575342,19.7616438 3.68575342,19.5517808 C2.88136986,12.309589 5.21150685,8.51315068 6.83232877,6.80794521 C7.41589041,7.71013699 8.64821918,8.20246575 9.67808219,7.89863014 L13.739726,6.70136986 C14.8150685,6.38356164 15.2726027,5.31671233 14.7556164,4.31945205 L13.0452055,1.0109589 C12.529589,0.0120547945 11.349863,-0.296986301 10.4128767,0.315890411 L6.81671233,2.66547945 C6.07835616,3.14767123 5.74273973,4.04712329 5.8909589,4.88849315 C3.93890411,6.6860274 0.695890411,11.0964384 1.68520548,19.8523288 C0.454520548,20.5079452 -0.203013699,21.9449315 0.181369863,23.3465753 C0.368219178,24.0147945 3.57424658,35.3043836 10.4915068,41.8331507 Z M57.5126027,21.0030137 C59.8473973,21.0030137 61.7441096,22.8969863 61.7441096,25.2364384 C61.7441096,27.5742466 59.8473973,29.469589 57.5126027,29.469589 C55.1745205,29.469589 53.2791781,27.5742466 53.2791781,25.2364384 C53.2791781,22.8967123 55.1731507,21.0030137 57.5126027,21.0030137 Z" id="Shape" stroke="none" fill="#666666" fill-rule="evenodd"></path>
        </symbol>
        <symbol id="service-education" viewBox="0 -1 80 81">
            <g id="Group" stroke="none" stroke-width="1" fill="none" fill-rule="evenodd">
                <path d="M45.3890058,37.8652632 C45.6244834,38.32577 46.0929435,38.5918129 46.5773099,38.5918129 C46.7795712,38.5918129 46.9871345,38.5451852 47.1801949,38.4467836 C47.2586355,38.4068616 55.091462,34.4279142 58.9545419,33.2076413 C59.6545809,32.9854191 60.0430409,32.2375049 59.8208187,31.5376218 C59.5998441,30.8375828 58.8573879,30.4477193 58.1507992,30.668694 C54.0814035,31.9555556 46.3019103,35.9078363 45.9719298,36.0754776 C45.317115,36.4081092 45.0563743,37.2093567 45.3890058,37.8652632 Z" id="Shape" fill="#666666"></path>
                <path d="M46.5773099,22.6231579 C46.7795712,22.6231579 46.9871345,22.5765302 47.1801949,22.4781287 C47.2586355,22.4382066 55.091462,18.4592593 58.9545419,17.2389864 C59.6545809,17.0167641 60.0430409,16.2688499 59.8208187,15.5689669 C59.5998441,14.8689279 58.8573879,14.4790643 58.1507992,14.700039 C54.0814035,15.9869006 46.3019103,19.9391813 45.9719298,20.1068226 C45.317271,20.4394542 45.0563743,21.2405458 45.3890058,21.8966082 C45.6244834,22.3569591 46.0929435,22.6231579 46.5773099,22.6231579 Z" id="Shape" fill="#666666"></path>
                <path d="M78.5136842,19.9616374 C77.7777778,19.9616374 77.1830019,20.5578168 77.1830019,21.2923197 L77.1830019,73.1909552 C77.1830019,75.3919688 75.3918129,77.1831579 73.1907992,77.1831579 L41.2531774,77.1831579 L41.2531774,74.1211696 C43.1934503,73.4424951 48.2474854,71.8602729 53.2297856,71.8602729 C64.8218324,71.8602729 72.6931774,74.4272904 72.7716179,74.4538012 C73.1720858,74.5868226 73.6193372,74.5203899 73.9692788,74.2700975 C74.3165692,74.019961 74.5214815,73.6180897 74.5214815,73.1907992 L74.5214815,14.6387524 C74.5214815,14.0146589 74.0890448,13.474308 73.4794542,13.339883 C73.4794542,13.339883 72.4361793,13.1070565 70.6529435,12.7795712 C69.9329435,12.6465497 69.237115,13.125614 69.1039376,13.8468616 C68.9709162,14.5707602 69.448577,15.2640936 70.1712281,15.397115 C70.851306,15.5221832 71.4208187,15.6325926 71.859961,15.7205458 L71.859961,71.4223782 C68.8444444,70.6318908 62.1483041,69.1987524 53.2296296,69.1987524 C47.4315789,69.1987524 41.7361404,71.1030019 39.9741131,71.74846 C38.4077973,71.0565302 33.6731384,69.1987524 27.945575,69.1987524 C18.7794152,69.1987524 11.2288499,70.7104873 7.9845614,71.4783626 L7.9845614,15.668616 C10.6420273,15.0152047 18.4907602,13.3079142 27.945575,13.3079142 C32.7975049,13.3079142 36.9585965,14.8182456 38.591501,15.5009747 L38.591501,67.8680702 C38.591501,68.3471345 38.8495906,68.7903314 39.2661209,69.025809 C39.6826511,69.2626901 40.1963353,69.2559844 40.6075634,69.008499 C40.7393372,68.9300585 53.9242105,61.0546589 65.6266667,57.154308 C66.1709162,56.9720078 66.5369201,56.4650292 66.5369201,55.891462 L66.5369201,1.33130604 C66.5369201,0.894814815 66.3226511,0.486237817 65.9633528,0.237504873 C65.6067057,-0.0113840156 65.1490058,-0.0686159844 64.7377778,0.0845224172 C54.0906043,4.07797271 43.317115,10.7822222 43.2092008,10.8488109 C42.5863548,11.2386745 42.3961014,12.0597271 42.7859649,12.6825731 C43.1745809,13.3054191 43.9956335,13.4956725 44.6197271,13.105809 C44.7181287,13.0432749 54.0906043,7.2120078 63.8753996,3.27703704 L63.8753996,54.9387914 C54.7917349,58.0952827 45.3076023,63.2492788 41.2528655,65.5566472 L41.2528655,14.6387524 C41.2528655,14.134425 40.9681092,13.6739181 40.5169591,13.4477973 C40.2880312,13.3347368 34.8347758,10.6465497 27.945575,10.6465497 C15.9210916,10.6465497 6.67649123,13.2481871 6.28787524,13.3598441 C5.71695906,13.5221832 5.32304094,14.0452242 5.32304094,14.6387524 L5.32304094,73.1911111 C5.32304094,73.6076413 5.52,74.0015595 5.85138402,74.2530994 C6.08561404,74.4300975 6.3677193,74.5219493 6.65387914,74.5219493 C6.7762963,74.5219493 6.89871345,74.5046394 7.01847953,74.4700195 C7.11033138,74.4447563 16.3123587,71.8604288 27.945575,71.8604288 C32.8107602,71.8604288 36.9679532,73.3748148 38.591501,74.0547368 L38.591501,77.1833138 L6.65387914,77.1833138 C4.4528655,77.1833138 2.66167641,75.3921248 2.66167641,73.1911111 L2.66167641,21.2924756 C2.66167641,20.5579727 2.06549708,19.9617934 1.33099415,19.9617934 C0.596491228,19.9617934 0.000311890838,20.5579727 0.000311890838,21.2924756 L0.000311890838,73.1911111 C0.000311890838,76.859883 2.98510721,79.8448343 6.65403509,79.8448343 L73.1907992,79.8448343 C76.8595712,79.8448343 79.8445224,76.860039 79.8445224,73.1911111 L79.8445224,21.2924756 C79.8443665,20.5578168 79.2495906,19.9616374 78.5136842,19.9616374 Z" id="Shape" fill="#666666"></path>
                <path d="M45.3890058,29.8808577 C45.6244834,30.3413645 46.0929435,30.6074074 46.5773099,30.6074074 C46.7795712,30.6074074 46.9871345,30.5607797 47.1801949,30.4623782 C47.2586355,30.4224561 55.091462,26.4435088 58.9545419,25.2232359 C59.6545809,25.0010136 60.0430409,24.2530994 59.8208187,23.5532164 C59.5998441,22.8531774 58.8573879,22.4633138 58.1507992,22.6842885 C54.0814035,23.9711501 46.3019103,27.9234308 45.9719298,28.0910721 C45.317115,28.4237037 45.0563743,29.2249513 45.3890058,29.8808577 Z" id="Shape" fill="#666666"></path>
                <path d="M45.3890058,45.8496686 C45.6244834,46.3101754 46.0929435,46.5762183 46.5773099,46.5762183 C46.7795712,46.5762183 46.9871345,46.5295906 47.1801949,46.4311891 C47.2586355,46.3912671 55.091462,42.4123197 58.9545419,41.1920468 C59.6545809,40.9698246 60.0430409,40.2219103 59.8208187,39.5220273 C59.5998441,38.8219883 58.8573879,38.4321248 58.1507992,38.6530994 C54.0814035,39.939961 46.3019103,43.8922417 45.9719298,44.059883 C45.317115,44.3925146 45.0563743,45.1937622 45.3890058,45.8496686 Z" id="Shape" fill="#666666"></path>
                <path d="M32.2414035,24.6964522 C24.0241715,22.7681871 14.6863158,25.2247953 14.2938012,25.3299025 C13.5845614,25.5201559 13.162729,26.2493567 13.3529825,26.96 C13.5126706,27.5547758 14.0502144,27.9460429 14.637193,27.9460429 C14.7516569,27.9460429 14.8673684,27.931384 14.9832359,27.9008187 C15.0724366,27.8755556 24.062846,25.5107992 31.6347758,27.2873294 C32.3466667,27.4537232 33.0666667,27.0105263 33.234308,26.2945809 C33.4017934,25.580039 32.9573489,24.8640936 32.2414035,24.6964522 Z" id="Shape" fill="#666666"></path>
                <path d="M32.2414035,32.6808577 C24.0241715,30.7539961 14.6863158,33.2092008 14.2938012,33.314308 C13.5845614,33.5045614 13.162729,34.2339181 13.3529825,34.9444055 C13.5126706,35.5391813 14.0502144,35.9304483 14.637193,35.9304483 C14.7516569,35.9304483 14.8673684,35.9157895 14.9832359,35.8852242 C15.0724366,35.859961 24.062846,33.4952047 31.6347758,35.2717349 C32.3466667,35.4381287 33.0666667,34.9949318 33.234308,34.2789864 C33.4017934,33.5644444 32.9573489,32.848499 32.2414035,32.6808577 Z" id="Shape" fill="#666666"></path>
                <path d="M45.3890058,53.8340741 C45.6244834,54.2945809 46.0929435,54.5606238 46.5773099,54.5606238 C46.7795712,54.5606238 46.9871345,54.5139961 47.1801949,54.4155945 C47.2586355,54.3756725 55.091462,50.3967251 58.9545419,49.1764522 C59.6545809,48.95423 60.0430409,48.2063158 59.8208187,47.5064327 C59.5998441,46.8065497 58.8573879,46.4165302 58.1507992,46.6375049 C54.0814035,47.9243665 46.3019103,51.8766472 45.9719298,52.0442885 C45.317115,52.3769201 45.0563743,53.1781676 45.3890058,53.8340741 Z" id="Shape" fill="#666666"></path>
                <path d="M32.2414035,40.6652632 C24.0241715,38.7384016 14.6863158,41.1922027 14.2938012,41.2987135 C13.5845614,41.4889669 13.162729,42.2183236 13.3529825,42.9288109 C13.5126706,43.5235867 14.0502144,43.9162573 14.637193,43.9162573 C14.7516569,43.9162573 14.8673684,43.9003509 14.9832359,43.8696296 C15.0724366,43.8443665 24.062846,41.4796101 31.6347758,43.2561404 C32.3466667,43.4225341 33.0666667,42.9793372 33.234308,42.2633918 C33.4017934,41.5488499 32.9573489,40.8329045 32.2414035,40.6652632 Z" id="Shape" fill="#666666"></path>
                <path d="M32.2414035,56.6340741 C24.0241715,54.705809 14.6863158,57.1624172 14.2938012,57.2675244 C13.5845614,57.4577778 13.162729,58.1871345 13.3529825,58.8976218 C13.5126706,59.4923977 14.0502144,59.8850682 14.637193,59.8850682 C14.7516569,59.8850682 14.8673684,59.8691618 14.9832359,59.8384405 C15.0724366,59.8131774 24.062846,57.4484211 31.6347758,59.2249513 C32.3466667,59.3899415 33.0666667,58.9481481 33.234308,58.2322027 C33.4017934,57.5176608 32.9573489,56.8017154 32.2414035,56.6340741 Z" id="Shape" fill="#666666"></path>
                <path d="M32.2414035,48.6496686 C24.0241715,46.7214035 14.6863158,49.1766082 14.2938012,49.2831189 C13.5845614,49.4733723 13.162729,50.202729 13.3529825,50.9132164 C13.5126706,51.5079922 14.0502144,51.9006628 14.637193,51.9006628 C14.7516569,51.9006628 14.8673684,51.8847563 14.9832359,51.8540351 C15.0724366,51.8287719 24.062846,49.4640156 31.6347758,51.2405458 C32.3466667,51.4069396 33.0666667,50.9637427 33.234308,50.2477973 C33.4017934,49.5332554 32.9573489,48.8173099 32.2414035,48.6496686 Z" id="Shape" fill="#666666"></path>
            </g>
        </symbol>

        <symbol id="form-check" viewBox="0 0 512 415">
            <polygon id="Shape" stroke="none" fill="#41AD49" fill-rule="evenodd" points="434.8 0 174.2 260.7 76.8 163.3 0 240.2 174.1 414.3 196.6 391.9 196.6 391.9 511.7 76.8"></polygon>
        </symbol>
    </defs>
</svg>
