<svg width="119px" height="51px" viewBox="249 -1 119 51" version="1.1" xmlns="http://www.w3.org/2000/svg" xmlns:xlink="http://www.w3.org/1999/xlink">
    <!-- Generator: Sketch 41.2 (35397) - http://www.bohemiancoding.com/sketch -->
    <desc>Created with Sketch.</desc>
    <defs>
        <path d="M27.8167109,16.5851347 L18.9402511,11.4468466 L10.0637913,16.5851347 L10.0637913,26.8626119 L18.9402511,32.0013506 L27.8167109,26.8626119 L27.8167109,16.5851347 Z M18.9402511,43.3675665 L0.247079958,32.5459451 L0.247079958,10.902252 L18.9402511,0.0801801782 L37.6334222,10.902252 L37.6334222,32.5459451 L18.9402511,43.3675665 Z" id="path-1"></path>
        <linearGradient x1="50.0002644%" y1="98.8656788%" x2="50.0002644%" y2="-14.8965223%" id="linearGradient-3">
            <stop stop-color="#F7956B" offset="0%"></stop>
            <stop stop-color="#AE256C" offset="100%"></stop>
        </linearGradient>
        <linearGradient x1="103.221142%" y1="110.059572%" x2="59.471197%" y2="26.7459516%" id="linearGradient-4">
            <stop stop-color="#CC546C" stop-opacity="0" offset="0%"></stop>
            <stop stop-color="#CA536B" stop-opacity="0" offset="3.83397819%"></stop>
            <stop stop-color="#B94C63" stop-opacity="0" offset="32.090231%"></stop>
            <stop stop-color="#B5445E" stop-opacity="0" offset="54.630914%"></stop>
            <stop stop-color="#54000C" stop-opacity="0.8" offset="79.7712054%"></stop>
            <stop stop-color="#54000C" stop-opacity="0.8" offset="86.9205719%"></stop>
            <stop stop-color="#54000C" stop-opacity="0.8" offset="100%"></stop>
        </linearGradient>
        <polygon id="path-5" points="0.247079958 16.7581077 28.7574117 0.253153147 28.7574117 11.6193691 10.0637913 22.4409904"></polygon>
        <linearGradient x1="49.9996849%" y1="218.494711%" x2="49.9996849%" y2="-3.44978379%" id="linearGradient-7">
            <stop stop-color="#F7956B" offset="0%"></stop>
            <stop stop-color="#AE256C" offset="100%"></stop>
        </linearGradient>
    </defs>
    <g id="Logo" stroke="none" stroke-width="1" fill="none" fill-rule="evenodd" transform="translate(250.000000, 0.000000)">
        <g id="Group-2" transform="translate(18.867925, 25.000000) scale(1, -1) translate(-18.867925, -25.000000) ">
            <g id="g12" transform="translate(-0.000004, 6.081078)">
                <g id="g14-Clipped">
                    <mask id="mask-2" fill="white">
                        <use xlink:href="#path-1"></use>
                    </mask>
                    <g id="path16"></g>
                    <g id="g14" mask="url(#mask-2)" fill="url(#linearGradient-3)">
                        <g id="g20">
                            <g id="g22">
                                <path d="M27.8167109,16.5851347 L18.9402511,11.4468466 L10.0637913,16.5851347 L10.0637913,26.8626119 L18.9402511,32.0013506 L27.8167109,26.8626119 L27.8167109,16.5851347 Z M18.9402511,43.3675665 L0.247079958,32.5459451 L0.247079958,10.902252 L18.9402511,0.0801801782 L37.6334222,10.902252 L37.6334222,32.5459451 L18.9402511,43.3675665 Z" id="path30"></path>
                            </g>
                        </g>
                    </g>
                </g>
            </g>
            <polygon id="path64" fill="url(#linearGradient-4)" points="10.0637872 22.6662126 18.940247 6.16125802 37.6334181 16.9833298 27.8167068 22.6662126 18.940247 17.5279244"></polygon>
            <g id="g78" transform="translate(-0.000004, 0.225222)">
                <g id="g80-Clipped">
                    <mask id="mask-6" fill="white">
                        <use xlink:href="#path-5"></use>
                    </mask>
                    <g id="path82"></g>
                    <g id="g80" mask="url(#mask-6)" fill="url(#linearGradient-7)">
                        <g id="g86">
                            <g id="g88">
                                <polygon id="path96" points="0.247079958 16.7581077 28.7574117 0.253153147 28.7574117 11.6193691 10.0637913 22.4409904"></polygon>
                            </g>
                        </g>
                    </g>
                </g>
            </g>
        </g>
        <path d="M56.6580189,29.4073585 L56.6580189,16.5273585 C56.6580189,15.0340177 56.278856,13.832363 55.5205189,12.9223585 C54.7621817,12.0123539 53.5196942,11.5573585 51.7930189,11.5573585 L46.8580189,11.5573585 L46.8580189,34.3773585 L51.7930189,34.3773585 C53.5196942,34.3773585 54.7621817,33.9281963 55.5205189,33.0298585 C56.278856,32.1315207 56.6580189,30.9240327 56.6580189,29.4073585 Z M53.6480189,29.3373585 C53.6480189,30.0606954 53.4963537,30.6323564 53.1930189,31.0523585 C52.889684,31.4723606 52.423022,31.6823585 51.7930189,31.6823585 L49.8680189,31.6823585 L49.8680189,14.3223585 L51.7930189,14.3223585 C52.423022,14.3223585 52.889684,14.5323564 53.1930189,14.9523585 C53.4963537,15.3723606 53.6480189,15.9440215 53.6480189,16.6673585 L53.6480189,29.3373585 Z M67.9480189,34.3773585 L67.9480189,31.6823585 L63.4680189,31.6823585 L63.4680189,24.0173585 L67.4230189,24.0173585 L67.4230189,21.2173585 L63.4680189,21.2173585 L63.4680189,14.3223585 L67.9480189,14.3223585 L67.9480189,11.5573585 L60.4580189,11.5573585 L60.4580189,34.3773585 L67.9480189,34.3773585 Z M80.1830189,29.3023585 C80.1830189,28.1823529 80.037187,27.2140292 79.7455189,26.3973585 C79.4538507,25.5806877 78.9113562,24.7406961 78.1180189,23.8773585 L74.7230189,20.2023585 C74.1630161,19.5956888 73.7896865,19.0298611 73.6030189,18.5048585 C73.4163513,17.9798559 73.3230189,17.3556954 73.3230189,16.6323585 C73.3230189,15.8390212 73.4805173,15.2031942 73.7955189,14.7248585 C74.1105204,14.2465228 74.5830157,14.0073585 75.2130189,14.0073585 C75.7730217,14.0073585 76.2221838,14.1940233 76.5605189,14.5673585 C76.8988539,14.9406937 77.0680189,15.5356877 77.0680189,16.3523585 L77.0680189,18.7673585 L80.0430189,18.7673585 L80.0430189,16.1773585 C80.0430189,14.6140173 79.6230231,13.4065294 78.7830189,12.5548585 C77.9430147,11.7031876 76.7530266,11.2773585 75.2130189,11.2773585 C74.3730147,11.2773585 73.6438553,11.4115238 73.0255189,11.6798585 C72.4071824,11.9481932 71.8996875,12.3215228 71.5030189,12.7998585 C71.1063502,13.2781942 70.8146865,13.8440219 70.6280189,14.4973585 C70.4413513,15.1506951 70.3480189,15.8623546 70.3480189,16.6323585 C70.3480189,17.1923613 70.3771852,17.7115228 70.4355189,18.1898585 C70.4938525,18.6681942 70.6046847,19.1231897 70.7680189,19.5548585 C70.931353,19.9865273 71.1471842,20.4065231 71.4155189,20.8148585 C71.6838535,21.2231939 72.0163502,21.6373564 72.4130189,22.0573585 L75.8080189,25.7323585 C76.3680217,26.3390282 76.7413513,26.9048559 76.9280189,27.4298585 C77.1146865,27.9548611 77.2080189,28.5790215 77.2080189,29.3023585 C77.2080189,31.0523672 76.5080259,31.9273585 75.1080189,31.9273585 C74.5713495,31.9273585 74.1163541,31.7406937 73.7430189,31.3673585 C73.3696837,30.9940233 73.1830189,30.3990292 73.1830189,29.5823585 L73.1830189,27.1673585 L70.2080189,27.1673585 L70.2080189,29.7573585 C70.2080189,31.3673665 70.657181,32.586521 71.5555189,33.4148585 C72.4538567,34.243196 73.6380115,34.6573585 75.1080189,34.6573585 C76.8113607,34.6573585 78.0830147,34.1498636 78.9230189,33.1348585 C79.7630231,32.1198534 80.1830189,30.8423662 80.1830189,29.3023585 Z M93.3280189,37.3523585 L91.0530189,33.7823585 C91.6596886,33.3390229 92.1321838,32.7965284 92.4705189,32.1548585 C92.8088539,31.5131886 92.9780189,30.7140299 92.9780189,29.7573585 L92.9780189,16.1773585 C92.9780189,14.6140173 92.5405232,13.4065294 91.6655189,12.5548585 C90.7905145,11.7031876 89.5946931,11.2773585 88.0780189,11.2773585 C86.5613446,11.2773585 85.3655232,11.7031876 84.4905189,12.5548585 C83.6155145,13.4065294 83.1780189,14.6140173 83.1780189,16.1773585 L83.1780189,29.7573585 C83.1780189,31.3206996 83.6155145,32.5281876 84.4905189,33.3798585 C85.3655232,34.2315294 86.5613446,34.6573585 88.0780189,34.6573585 L88.4980189,34.6573585 L90.2480189,37.3523585 L93.3280189,37.3523585 Z M89.9680189,29.5823585 C89.9680189,30.3990292 89.7930206,30.9940233 89.4430189,31.3673585 C89.0930171,31.7406937 88.6380217,31.9273585 88.0780189,31.9273585 C87.5180161,31.9273585 87.0630206,31.7406937 86.7130189,31.3673585 C86.3630171,30.9940233 86.1880189,30.3990292 86.1880189,29.5823585 L86.1880189,16.3523585 C86.1880189,15.5356877 86.3630171,14.9406937 86.7130189,14.5673585 C87.0630206,14.1940233 87.5180161,14.0073585 88.0780189,14.0073585 C88.6380217,14.0073585 89.0930171,14.1940233 89.4430189,14.5673585 C89.7930206,14.9406937 89.9680189,15.5356877 89.9680189,16.3523585 L89.9680189,29.5823585 Z M104.513019,34.3773585 L104.513019,31.6823585 L100.033019,31.6823585 L100.033019,24.0173585 L103.988019,24.0173585 L103.988019,21.2173585 L100.033019,21.2173585 L100.033019,14.3223585 L104.513019,14.3223585 L104.513019,11.5573585 L97.0230189,11.5573585 L97.0230189,34.3773585 L104.513019,34.3773585 Z M117.203019,34.3773585 L117.203019,26.6773585 C117.203019,25.7906874 117.04552,25.0031953 116.730519,24.3148585 C116.415517,23.6265217 115.943022,23.1540264 115.313019,22.8973585 C115.849688,22.6173571 116.29885,22.1740282 116.660519,21.5673585 C117.022187,20.9606888 117.203019,20.2606958 117.203019,19.4673585 L117.203019,16.6673585 C117.203019,15.9206881 117.109686,15.2323616 116.923019,14.6023585 C116.736351,13.9723553 116.450521,13.4298608 116.065519,12.9748585 C115.680517,12.5198562 115.178855,12.1698597 114.560519,11.9248585 C113.942182,11.6798573 113.201357,11.5573585 112.338019,11.5573585 L107.648019,11.5573585 L107.648019,34.3773585 L110.658019,34.3773585 L110.658019,24.3323585 L112.338019,24.3323585 C112.968022,24.3323585 113.434684,24.5423564 113.738019,24.9623585 C114.041354,25.3823606 114.193019,25.9540215 114.193019,26.6773585 L114.193019,34.3773585 L117.203019,34.3773585 Z M114.193019,19.4673585 C114.193019,20.1906954 114.041354,20.7623564 113.738019,21.1823585 C113.434684,21.6023606 112.968022,21.8123585 112.338019,21.8123585 L110.658019,21.8123585 L110.658019,14.3223585 L112.338019,14.3223585 C112.968022,14.3223585 113.434684,14.5323564 113.738019,14.9523585 C114.041354,15.3723606 114.193019,15.9440215 114.193019,16.6673585 L114.193019,19.4673585 Z" id="DESQER" fill="#55374F"></path>
    </g>
</svg>
